<svg width="966" height="957" viewBox="0 0 966 957" fill="none" xmlns="http://www.w3.org/2000/svg">
<g filter="url(#filter0_d)">
<path d="M300.888 522.98C295.111 524.335 291.354 530.097 291.577 536.585C282.89 539.64 272.815 542.57 261.498 544.818C255.201 546.057 249.143 546.967 243.425 547.619C243.171 546.541 242.899 545.456 242.612 544.375C241.214 539.115 239.459 534.047 237.414 529.175C239.641 526.256 242.54 523.038 246.273 519.949C252.726 514.568 259.293 511.521 264.521 509.758C268.723 515.068 275.642 516.968 280.969 513.924C286.978 510.496 288.716 502.11 284.823 495.199C280.945 488.282 272.944 485.441 266.935 488.87C261.467 491.999 259.539 499.24 262.179 505.737C258.242 509.654 252.093 514.398 243.583 516.888C239.39 518.123 235.533 518.533 232.333 518.589C228.341 511.244 223.613 504.445 218.237 498.278C221.028 493.918 224.436 489.178 228.624 484.362C234.683 477.375 240.863 471.887 246.442 467.642C251.815 471.401 258.752 471.282 262.999 466.995C267.878 462.079 267.33 453.506 261.799 447.861C256.269 442.218 247.809 441.643 242.932 446.569C238.698 450.841 238.543 457.876 242.215 463.34C237.958 469.004 232.53 475.233 225.648 481.331C220.976 485.491 216.358 488.937 212.097 491.757C206.544 486.275 200.467 481.402 193.967 477.208C194.012 469.576 195.066 460.397 198.415 450.583C201.573 441.401 205.854 434.173 209.716 428.866C216.05 430.837 222.738 428.493 225.432 422.966C228.5 416.7 225.306 408.735 218.273 405.178C211.268 401.601 203.099 403.782 200.047 410.045C197.354 415.572 199.499 422.418 204.882 426.4C203.115 432.586 200.058 440.489 194.66 448.676C188.705 457.71 181.976 463.96 176.659 468.025C168.456 464.549 159.856 462.035 151.002 460.59C151.286 457.053 151.946 453.394 153.093 449.665C154.02 446.705 155.15 444.017 156.37 441.607C163.053 442.495 169.331 438.911 170.979 432.89C172.846 426.16 168.245 418.916 160.71 416.724C153.174 414.529 145.565 418.202 143.701 424.944C142.075 430.864 145.435 437.181 151.386 440.109C151.099 443.08 150.624 446.209 149.921 449.457C149.133 453.188 148.139 456.697 146.979 460.006C146.084 459.894 145.208 459.79 144.322 459.712C133.949 458.634 123.302 459.04 112.625 461.056C109.652 456.806 106.771 451.986 104.197 446.535C98.9556 435.409 96.648 425.127 95.608 417.221C101.448 414.386 104.747 408.253 103.184 402.37C101.382 395.59 93.809 391.717 86.2631 393.722C78.7019 395.732 74.034 402.856 75.8357 409.637C77.4258 415.621 83.5199 419.331 90.12 418.741C93.4936 425.909 97.1947 436.214 98.3387 448.995C98.8231 454.626 98.7387 459.898 98.3022 464.766C88.4089 468.01 79.2822 472.543 71.0089 478.137C69.1996 476.426 67.4851 474.58 65.79 472.316C62.4436 467.83 60.3245 463.356 58.9331 459.532C64.0035 454.844 65.2976 447.491 61.6857 442.252C57.7069 436.491 49.2946 435.482 42.8903 440.002C36.5013 444.518 34.5374 452.851 38.5318 458.609C41.9737 463.578 48.7009 465.002 54.5863 462.398C57.3815 465.67 60.2527 469.534 62.8991 474.089C64.3218 476.495 65.5311 478.896 66.6036 481.274C59.2111 486.805 52.606 493.211 46.8531 500.305C42.3701 498.544 37.6778 496.363 32.8853 493.621C21.8552 487.305 13.6779 479.993 7.96638 473.916C10.9385 468.026 9.8732 461.007 5.07271 457.252C-0.426326 452.956 -8.73271 454.556 -13.4814 460.824C-18.2144 467.089 -17.6042 475.65 -12.1209 479.948C-7.2458 483.738 -0.214781 482.927 4.64297 478.36C11.4976 481.922 20.7851 487.946 29.3637 497.873C33.2951 502.411 36.4108 507.011 38.9172 511.407C38.0578 512.78 37.1921 514.19 36.3781 515.61C32.3213 522.762 29.0054 530.368 26.5432 538.299C23.8324 538.232 20.989 538.034 18.0316 537.653C8.41472 536.41 0.489937 533.672 -5.43558 531.027C-4.99114 524.346 -8.77585 518.272 -14.6906 516.773C-21.3954 515.064 -28.3312 519.918 -30.1714 527.612C-32.0275 535.306 -28.0772 542.924 -21.3423 544.623C-15.4436 546.123 -9.375 542.551 -6.73942 536.439C-0.272343 536.945 7.99186 538.319 17.0535 541.773C19.7595 542.805 22.2797 543.936 24.6651 545.112C21.5728 557.736 20.6027 571.038 22.0427 584.503C16.9641 586.335 11.4119 588.043 5.34016 589.454C-3.32885 591.47 -11.3603 592.509 -18.498 592.979C-20.448 586.255 -26.4038 581.776 -32.6118 582.735C-39.4468 583.792 -43.977 591.005 -42.7421 598.846C-41.492 606.683 -34.9551 612.182 -28.1362 611.126C-22.0539 610.185 -17.8212 604.371 -17.8159 597.573C-10.8266 595.868 -2.8536 594.426 6.00003 593.657C12.1411 593.121 17.8999 592.989 23.3008 593.107C23.8376 596.11 24.5202 599.109 25.3185 602.113C27.2144 609.248 29.7239 616.051 32.8019 622.476C28.0679 627.877 21.307 634.372 12.0189 640.14C3.88003 645.196 -3.84828 648.234 -10.1525 650.122C-14.0375 644.714 -20.7056 642.468 -26.1535 645.121C-32.3518 648.145 -34.6143 656.398 -31.1797 663.55C-27.7447 670.704 -19.9202 674.046 -13.7219 671.023C-8.34651 668.404 -5.94925 661.886 -7.61712 655.548C-1.67896 651.669 5.46789 647.609 13.854 643.975C23.4839 639.801 32.4358 637.19 40.1163 635.508C45.6306 644.037 52.2291 651.672 59.6213 658.301C57.6669 660.958 55.4311 663.661 52.7953 666.333C47.7722 671.444 42.6387 675.158 38.0459 677.897C33.244 673.338 26.2836 672.449 21.4483 676.118C15.9509 680.304 15.302 688.857 20.0259 695.21C22.9947 699.197 27.3787 701.384 31.5961 701.409C34.0836 701.435 36.5174 700.705 38.5679 699.147C39.1638 698.687 39.7262 698.163 40.21 697.588C43.915 693.351 44.1617 686.54 40.6591 681.036C44.7004 677.328 49.5407 673.432 55.3177 669.745C59.0456 667.374 62.6675 665.404 66.1249 663.736C70.6086 667.22 75.3561 670.346 80.2789 673.087C80.7406 673.35 81.2176 673.61 81.6727 673.849C80.6186 680.569 78.5668 688.94 74.5144 697.951C70.5424 706.772 65.8175 713.682 61.641 718.786C55.4818 716.428 48.7194 718.311 45.668 723.596C42.1776 729.623 44.8378 737.792 51.6095 741.841C58.3474 745.885 66.6687 744.279 70.1434 738.254C73.1759 733.021 71.567 726.168 66.6571 721.817C69.2842 715.366 72.9642 707.901 78.1282 700.126C83.694 691.774 89.5959 685.117 94.9152 679.953C104.764 683.727 115.179 686.132 125.839 687.002C126.448 690.831 126.861 695.026 126.901 699.538C126.999 709.364 125.453 717.673 123.71 723.949C117.106 724.339 111.689 728.891 111.048 735.018C110.334 741.973 116.057 748.338 123.836 749.237C131.6 750.141 138.486 745.223 139.228 738.25C139.856 732.199 135.625 726.594 129.382 724.659C129.152 717.714 129.49 709.339 131.062 700.023C131.844 695.476 132.829 691.258 133.947 687.356C142.01 687.421 150.166 686.605 158.338 684.807C161.355 690.879 164.331 697.78 166.935 705.493C170.816 716.965 172.939 727.472 174.109 736.3C168.302 739.135 165.018 745.263 166.577 751.133C168.379 757.913 175.952 761.784 183.529 759.77C191.075 757.765 195.727 750.646 193.926 743.866C192.372 738.02 186.512 734.331 180.088 734.723C176.747 726.266 173.457 716.096 170.975 704.419C169.306 696.541 168.269 689.137 167.642 682.357C176.001 679.786 183.837 676.295 191.074 672.019C192.056 673.012 193.035 674.055 194.008 675.136C200.454 682.261 204.797 689.392 207.678 695.257C203.088 699.914 201.972 706.891 205.417 711.932C209.339 717.726 217.751 718.796 224.188 714.335C230.606 709.869 232.64 701.55 228.702 695.761C225.215 690.622 218.196 689.206 212.166 692.063C207.904 687.757 202.482 680.986 198.698 671.477C198.223 670.3 197.799 669.136 197.427 667.98C205.317 662.604 212.408 656.246 218.595 649.127C224.527 651.855 230.924 655.292 237.53 659.639C247.694 666.319 255.691 673.444 261.758 679.693C258.844 685.556 259.926 692.516 264.69 696.254C270.203 700.541 278.493 698.942 283.242 692.674C287.976 686.414 287.367 677.857 281.882 673.552C277.127 669.846 270.275 670.532 265.447 674.843C257.797 670.255 249.056 664.198 240.082 656.284C234.283 651.168 229.25 646.044 224.924 641.127C227.296 637.832 229.489 634.416 231.518 630.874C234.81 625.08 237.615 618.992 239.855 612.681C247.117 612.803 255.653 613.537 265.034 615.553C274.082 617.48 281.91 620.161 288.362 622.884C287.933 629.438 291.583 635.437 297.386 637.005C304.074 638.834 311.091 634.1 313.072 626.447C315.05 618.783 311.215 611.108 304.528 609.278C298.686 607.685 292.562 611.11 289.817 617.12C283.228 616.397 275.041 614.824 266.098 611.448C256.811 607.947 249.322 603.533 243.683 599.509C245.104 593.249 246.008 586.822 246.361 580.289C249.623 579.543 253.13 578.924 256.811 578.525C266.313 577.495 274.617 578.098 281.165 579.155C282.369 585.709 287.498 590.64 293.546 590.614C300.458 590.586 305.99 584.135 305.906 576.2C305.806 568.268 300.138 561.864 293.21 561.896C287.144 561.914 282.124 566.916 281.058 573.528C274.716 574.659 266.374 575.392 256.76 574.282C253.12 573.85 249.685 573.207 246.507 572.424C246.413 566.481 245.865 560.487 244.806 554.475C250.308 552.518 256.206 550.638 262.499 548.952C273.588 545.971 283.895 544.099 293.069 542.94C295.78 548.84 301.711 552.305 307.476 550.967C314.203 549.383 318.188 541.837 316.348 534.115C314.524 526.389 307.601 521.402 300.888 522.98Z" fill="#FFDEE5"/>
</g>
<path d="M280.243 361.946C280.116 368.489 285.231 374.074 292.2 375.605C293.093 385.721 293.479 397.285 292.799 409.992C292.409 417.059 291.733 423.781 290.875 430.069C289.658 430.047 288.429 430.042 287.201 430.054C281.222 430.114 275.349 430.608 269.607 431.465C267.103 428.29 264.464 424.315 262.189 419.484C258.212 411.121 256.751 403.273 256.292 397.206C263.086 394.163 266.988 387.287 265.194 380.764C263.174 373.408 254.718 369.265 246.303 371.541C237.887 373.8 232.689 381.576 234.709 388.932C236.556 395.629 243.741 399.663 251.376 398.612C254.477 403.887 257.859 411.751 258.2 421.525C258.377 426.342 257.766 430.575 256.957 434.01C248.052 436.274 239.531 439.474 231.505 443.538C227.622 439.367 223.499 434.433 219.51 428.645C213.715 420.265 209.55 412.166 206.545 405.046C212.005 400.329 213.762 392.883 210.35 387.176C206.441 380.622 197.165 378.871 189.653 383.243C182.144 387.615 179.236 396.499 183.156 403.053C186.555 408.743 194.003 410.825 200.817 408.391C205.692 414.483 210.85 421.982 215.475 430.999C218.635 437.126 221.05 442.999 222.896 448.321C215.552 452.761 208.714 457.927 202.484 463.73C194.371 461.602 184.884 457.975 175.345 451.72C166.426 445.843 159.893 439.297 155.291 433.724C159.109 427.493 158.429 419.706 153.275 415.322C147.438 410.335 138.09 411.577 132.394 418.123C126.684 424.634 126.788 433.958 132.627 438.927C137.781 443.311 145.653 442.885 151.353 438.217C157.46 441.792 165.044 447.214 172.295 455.213C180.297 464.04 185.124 472.933 188.009 479.724C182.081 487.542 177.069 496.047 173.128 505.115C169.439 503.848 165.722 502.145 162.064 499.903C159.164 498.105 156.609 496.165 154.374 494.204C157.134 487.305 155.022 479.619 149.059 476.217C142.401 472.387 133.44 475.33 129.06 482.785C124.678 490.24 126.523 499.372 133.194 503.202C139.056 506.553 146.693 504.684 151.426 499.122C154.512 500.24 157.714 501.599 160.981 503.237C164.74 505.095 168.206 507.113 171.414 509.256C171.052 510.181 170.703 511.089 170.38 512.015C166.415 522.806 163.958 534.295 163.206 546.254C157.874 548.273 151.959 550.037 145.457 551.303C132.189 553.871 120.616 553.535 111.916 552.491C110.483 545.477 104.849 540.28 98.161 540.347C90.4531 540.424 84.2746 547.462 84.3609 556.073C84.4474 564.7 90.7659 571.631 98.4737 571.553C105.277 571.485 110.881 565.984 112.044 558.77C120.592 557.119 132.568 555.972 146.486 558.233C152.614 559.251 158.204 560.778 163.268 562.571C164.036 574.028 166.384 585.016 170.094 595.382C167.781 596.849 165.35 598.179 162.48 599.373C156.795 601.726 151.456 602.771 147.008 603.216C143.393 596.52 135.916 593.133 129.357 595.564C122.143 598.246 118.785 606.961 121.859 615.037C124.933 623.095 133.272 627.465 140.487 624.766C146.711 622.442 150.053 615.641 148.879 608.642C153.121 606.547 158.015 604.532 163.582 602.945C166.53 602.081 169.415 601.443 172.238 600.945C176.119 610.353 181.147 619.157 187.139 627.239C184.046 631.549 180.451 635.969 176.23 640.343C166.511 650.409 156.507 657.155 148.485 661.602C143.021 656.82 135.259 656.046 129.958 660.152C123.892 664.858 123.341 674.171 128.725 680.953C134.11 687.719 143.39 689.4 149.455 684.712C154.813 680.535 155.859 672.801 152.315 666.365C157.969 660.011 166.903 651.727 179.801 645.266C185.699 642.301 191.443 640.226 196.804 638.745C198.032 640.038 199.299 641.347 200.59 642.604C207.102 648.889 214.3 654.506 222.076 659.299C221.269 662.177 220.286 665.162 219.077 668.218C215.143 678.156 210.077 685.879 205.652 691.49C198.66 689.195 191.166 691.583 187.964 697.496C184.325 704.195 187.61 712.93 195.301 716.993C202.989 721.074 212.173 718.929 215.81 712.195C219.008 706.3 216.852 698.841 211.06 694.359C213.355 687.586 217.061 679.129 223.198 670.386C225.031 667.776 226.92 665.391 228.82 663.163C241.421 669.908 255.319 674.57 270.047 676.702C270.618 682.628 270.929 689.027 270.783 695.9C270.577 705.714 269.502 714.58 268.065 722.336C260.377 722.587 253.991 727.73 253.328 734.626C252.597 742.218 259.046 749.025 267.73 749.843C276.413 750.643 284.042 745.156 284.769 737.582C285.418 730.825 280.378 724.717 273.142 722.859C273.224 714.925 273.853 706.012 275.438 696.341C276.534 689.632 277.957 683.442 279.549 677.702C282.892 677.947 286.27 678.035 289.685 678.001C297.796 677.92 305.72 677.092 313.396 675.554C317.861 682.085 322.942 691.081 326.561 702.578C329.734 712.654 330.871 721.741 331.169 728.992C324.357 731.67 320.156 738.184 321.502 744.729C323.038 752.177 331.211 756.844 339.758 755.123C348.307 753.402 353.99 745.952 352.453 738.504C351.125 732.046 344.836 727.707 337.635 727.762C335.117 720.359 332.735 711.615 331.142 701.663C329.312 690.234 328.963 679.956 329.256 671.289C339.834 667.722 349.754 662.751 358.819 656.658C361.117 659.471 363.388 662.597 365.517 666.142C369.596 672.903 372.156 679.401 373.825 685.056C367.668 688.945 364.831 696.141 367.425 702.308C370.39 709.324 379.319 712.348 387.366 709.032C392.416 706.946 395.936 702.857 397.107 698.357C397.81 695.706 397.694 692.906 396.592 690.29C396.263 689.528 395.858 688.784 395.378 688.111C391.872 682.996 384.688 680.876 377.877 683.119C375.026 677.789 372.192 671.555 369.834 664.376C368.323 659.747 367.208 655.339 366.371 651.19C371.298 647.348 375.914 643.126 380.169 638.613C380.575 638.191 380.981 637.752 381.358 637.331C388.227 640.289 396.583 644.763 405.076 651.55C413.39 658.199 419.464 665.132 423.764 670.986C419.582 676.926 419.751 684.665 424.549 689.367C430.018 694.74 439.438 694.123 445.586 687.99C451.721 681.892 452.271 672.562 446.799 667.206C442.051 662.539 434.318 662.391 428.353 666.452C422.197 661.886 415.249 655.919 408.373 648.281C400.992 640.057 395.507 631.935 391.453 624.843C398.144 615.347 403.532 604.873 407.352 593.718C411.594 594.11 416.172 594.813 420.988 596C431.476 598.574 439.902 602.49 446.111 606.064C444.733 613.228 448.109 620.257 454.459 622.612C461.669 625.271 470 620.89 473.069 612.822C476.138 604.772 472.772 596.072 465.549 593.378C459.277 591.058 452.162 594.052 448.406 600.196C440.95 598.548 432.125 595.905 422.633 591.686C418.004 589.61 413.781 587.408 409.931 585.15C412.188 576.551 413.533 567.613 413.837 558.39C421.122 556.821 429.277 555.522 438.195 554.841C451.463 553.821 463.225 554.416 472.942 555.571C474.384 562.55 480.017 567.73 486.69 567.663C494.398 567.586 500.575 560.548 500.488 551.903C500.402 543.292 494.085 536.379 486.377 536.457C479.731 536.523 474.213 541.78 472.886 548.752C462.975 550.017 451.254 550.761 438.149 550.231C429.308 549.867 421.143 548.958 413.755 547.779C413.287 538.146 411.697 528.82 409.11 519.921C410.433 519.143 411.809 518.381 413.224 517.636C422.56 512.689 431.331 509.991 438.358 508.512C442.07 514.685 449.195 517.78 455.498 515.473C462.732 512.86 466.154 504.162 463.151 496.068C460.139 487.992 451.835 483.552 444.601 486.181C438.184 488.507 434.77 495.622 436.176 502.845C430.434 506.225 421.753 510.174 410.602 511.626C409.22 511.813 407.866 511.949 406.534 512.032C402.952 502.134 398.108 492.823 392.208 484.271C396.723 478.676 402.119 472.777 408.54 466.902C418.411 457.861 428.168 451.257 436.468 446.477C441.919 451.189 449.623 451.929 454.896 447.858C460.957 443.135 461.505 433.84 456.121 427.057C450.741 420.291 441.466 418.609 435.393 423.298C430.156 427.369 429.027 434.878 432.306 441.213C425.345 448.137 416.523 455.827 405.661 463.26C398.64 468.062 391.818 472.045 385.408 475.328C382.544 471.894 379.502 468.62 376.282 465.486C371.007 460.389 365.287 455.732 359.177 451.618C361.277 443.89 364.377 434.969 369.069 425.493C373.577 416.35 378.557 408.715 383.207 402.562C390.068 404.807 397.446 402.541 400.692 396.768C404.455 390.119 401.319 381.331 393.709 377.127C386.087 372.924 376.873 374.93 373.11 381.578C369.828 387.387 371.812 394.865 377.466 399.436C374.907 406.281 371.009 414.601 364.988 423.238C358.739 432.208 352.007 439.007 346.191 443.937C339.912 440.712 333.315 437.995 326.455 435.837C326.546 432.148 326.84 428.23 327.414 424.189C328.898 413.753 331.793 405.043 334.696 398.334C342.001 398.835 348.644 394.697 350.257 388.227C352.104 380.832 346.738 373.162 338.267 371.09C329.795 369.035 321.437 373.346 319.591 380.758C317.964 387.246 321.926 393.973 328.676 396.915C328.159 404.001 326.674 413.114 322.883 423.086C321.435 426.858 319.818 430.353 318.121 433.537C311.769 432.017 305.238 430.969 298.549 430.462C297.96 424.049 297.559 417.233 297.473 410.049C297.309 397.386 298.115 385.862 299.371 375.742C306.389 374.453 311.687 369.06 311.828 362.534C311.968 354.913 305.015 348.598 296.294 348.46C287.573 348.303 280.385 354.342 280.243 361.946Z" fill="#FFE8E8"/>
<g filter="url(#filter1_d)">
<path d="M439.455 457.979C437.573 458.667 436.536 460.725 436.859 462.858C434.069 464.228 430.809 465.615 427.108 466.829C425.048 467.5 423.055 468.053 421.167 468.507C421.04 468.161 420.908 467.814 420.77 467.469C420.101 465.792 419.32 464.192 418.449 462.669C419.083 461.612 419.93 460.429 421.061 459.254C423.014 457.209 425.096 455.929 426.777 455.129C428.387 456.707 430.775 457.046 432.442 455.819C434.322 454.437 434.582 451.597 433.015 449.477C431.452 447.356 428.666 446.751 426.786 448.133C425.076 449.394 424.708 451.865 425.84 453.9C424.672 455.357 422.796 457.179 420.043 458.356C418.687 458.938 417.412 459.234 416.343 459.386C414.726 457.127 412.883 455.08 410.848 453.269C411.615 451.713 412.575 450.006 413.792 448.242C415.552 445.683 417.41 443.614 419.115 441.98C421.057 442.997 423.374 442.669 424.631 441.076C426.076 439.25 425.565 436.443 423.498 434.81C421.431 433.178 418.577 433.341 417.134 435.17C415.88 436.757 416.098 439.085 417.536 440.736C416.328 442.783 414.75 445.066 412.68 447.366C411.275 448.933 409.862 450.263 408.544 451.372C406.476 449.794 404.255 448.438 401.919 447.325C401.642 444.803 401.644 441.729 402.389 438.35C403.094 435.188 404.25 432.623 405.34 430.71C407.535 431.097 409.684 430.045 410.373 428.108C411.16 425.912 409.787 423.415 407.297 422.535C404.816 421.646 402.165 422.706 401.383 424.9C400.694 426.837 401.674 429.008 403.628 430.098C403.273 432.214 402.552 434.95 401.059 437.877C399.412 441.108 397.399 443.451 395.775 445.015C392.897 444.209 389.923 443.737 386.904 443.629C386.864 442.45 386.945 441.214 387.186 439.936C387.383 438.92 387.658 437.986 387.974 437.139C390.245 437.154 392.208 435.709 392.53 433.653C392.897 431.353 391.08 429.154 388.474 428.744C385.868 428.334 383.462 429.864 383.096 432.167C382.779 434.189 384.145 436.134 386.249 436.852C386.266 437.845 386.227 438.898 386.116 439.999C385.995 441.264 385.797 442.463 385.535 443.604C385.232 443.605 384.934 443.607 384.635 443.618C381.122 443.694 377.574 444.272 374.078 445.382C372.921 444.103 371.772 442.632 370.702 440.94C368.522 437.486 367.356 434.188 366.705 431.621C368.551 430.442 369.421 428.28 368.672 426.403C367.81 424.24 365.127 423.277 362.679 424.254C360.225 425.232 358.935 427.779 359.798 429.942C360.559 431.851 362.741 432.821 364.927 432.352C366.33 434.577 367.963 437.825 368.835 441.996C369.213 443.835 369.387 445.579 369.427 447.204C366.24 448.687 363.359 450.564 360.804 452.755C360.133 452.265 359.489 451.728 358.835 451.051C357.543 449.709 356.663 448.321 356.051 447.117C357.568 445.358 357.72 442.877 356.311 441.298C354.759 439.562 351.905 439.579 349.934 441.338C347.969 443.095 347.631 445.928 349.188 447.662C350.53 449.159 352.836 449.349 354.706 448.244C355.767 449.207 356.875 450.363 357.935 451.757C358.504 452.492 359 453.234 359.45 453.974C357.188 456.108 355.223 458.498 353.569 461.079C352.001 460.685 350.347 460.16 348.638 459.455C344.705 457.83 341.689 455.757 339.544 453.988C340.314 451.92 339.688 449.648 337.938 448.608C335.933 447.419 333.215 448.294 331.865 450.561C330.521 452.826 331.053 455.627 333.053 456.817C334.829 457.865 337.151 457.304 338.602 455.594C341.033 456.484 344.371 458.086 347.622 461.005C349.112 462.339 350.331 463.728 351.338 465.075C351.103 465.564 350.867 466.065 350.649 466.568C349.565 469.098 348.746 471.747 348.226 474.468C347.316 474.558 346.357 474.612 345.353 474.609C342.086 474.599 339.33 474.026 337.245 473.4C337.138 471.176 335.639 469.328 333.602 469.08C331.293 468.795 329.157 470.687 328.836 473.303C328.509 475.92 330.123 478.271 332.442 478.551C334.474 478.8 336.368 477.368 337.016 475.24C339.2 475.138 342.018 475.247 345.183 476.01C346.128 476.238 347.015 476.506 347.858 476.795C347.306 481.091 347.491 485.522 348.488 489.907C346.859 490.724 345.066 491.519 343.088 492.237C340.264 493.264 337.616 493.942 335.245 494.395C334.335 492.256 332.17 491.026 330.129 491.601C327.882 492.235 326.642 494.805 327.356 497.341C328.074 499.876 330.472 501.419 332.714 500.787C334.713 500.222 335.907 498.127 335.649 495.883C337.923 495.029 340.536 494.22 343.47 493.598C345.504 493.165 347.427 492.881 349.239 492.695C349.533 493.664 349.876 494.625 350.259 495.584C351.166 497.86 352.266 500.001 353.542 501.994C352.165 503.974 350.151 506.4 347.263 508.691C344.733 510.699 342.263 512.024 340.225 512.91C338.718 511.287 336.4 510.823 334.679 511.926C332.72 513.182 332.279 516.001 333.702 518.219C335.125 520.437 337.872 521.214 339.831 519.958C341.529 518.87 342.082 516.618 341.281 514.595C343.12 513.067 345.357 511.429 348.024 509.88C351.087 508.101 353.983 506.866 356.489 505.991C358.661 508.577 361.162 510.822 363.889 512.702C363.337 513.661 362.692 514.646 361.912 515.638C360.427 517.535 358.851 518.974 357.419 520.07C355.637 518.765 353.274 518.762 351.796 520.174C350.116 521.785 350.227 524.636 352.051 526.536C353.197 527.728 354.748 528.268 356.16 528.1C356.994 528.005 357.78 527.663 358.407 527.063C358.589 526.886 358.757 526.69 358.897 526.48C359.975 524.927 359.796 522.668 358.413 520.997C359.624 519.605 361.095 518.117 362.887 516.659C364.044 515.721 365.181 514.92 366.274 514.225C367.908 515.189 369.616 516.023 371.369 516.722C371.533 516.79 371.703 516.856 371.864 516.916C371.769 519.178 371.403 522.027 370.391 525.17C369.4 528.248 368.083 530.725 366.88 532.584C364.729 532.063 362.538 532.966 361.719 534.838C360.781 536.973 361.984 539.559 364.406 540.613C366.815 541.667 369.539 540.79 370.471 538.656C371.286 536.803 370.485 534.608 368.675 533.376C369.307 531.137 370.253 528.519 371.684 525.738C373.227 522.749 374.947 520.305 376.53 518.379C379.97 519.214 383.548 519.574 387.149 519.417C387.5 520.656 387.798 522.023 387.984 523.511C388.393 526.751 388.194 529.558 387.851 531.702C385.655 532.106 384.017 533.834 384.037 535.884C384.064 538.209 386.223 540.072 388.861 540.045C391.494 540.019 393.61 538.109 393.592 535.776C393.57 533.753 391.94 532.079 389.776 531.7C389.434 529.417 389.226 526.639 389.395 523.498C389.483 521.964 389.651 520.531 389.876 519.196C392.577 518.882 395.275 518.272 397.941 517.338C399.184 519.217 400.444 521.371 401.611 523.809C403.348 527.434 404.461 530.814 405.191 533.679C403.356 534.857 402.491 537.017 403.238 538.889C404.1 541.053 406.783 542.015 409.241 541.034C411.69 540.058 412.975 537.514 412.112 535.351C411.369 533.486 409.266 532.512 407.131 532.909C405.689 530.257 404.199 527.037 402.921 523.286C402.061 520.755 401.431 518.354 400.962 516.142C403.661 514.945 406.15 513.466 408.408 511.753C408.774 512.04 409.142 512.343 409.509 512.66C411.939 514.743 413.666 516.916 414.854 518.732C413.496 520.46 413.39 522.81 414.736 524.331C416.27 526.08 419.126 526.082 421.11 524.342C423.087 522.6 423.449 519.769 421.91 518.022C420.546 516.471 418.143 516.296 416.234 517.491C414.643 516.247 412.569 514.237 410.939 511.256C410.734 510.888 410.548 510.521 410.379 510.155C412.814 508.051 414.944 505.657 416.742 503.049C418.832 503.703 421.104 504.571 423.481 505.73C427.139 507.512 430.088 509.531 432.357 511.341C431.607 513.397 432.235 515.65 433.972 516.685C435.982 517.871 438.695 516.997 440.044 514.731C441.389 512.467 440.858 509.668 438.857 508.475C437.124 507.45 434.857 507.962 433.406 509.586C430.671 508.39 427.513 506.755 424.207 504.517C422.071 503.069 420.19 501.588 418.554 500.145C419.222 498.958 419.825 497.739 420.368 496.485C421.248 494.436 421.954 492.309 422.462 490.133C424.897 489.87 427.782 489.757 430.999 490.031C434.1 490.29 436.823 490.849 439.087 491.479C439.194 493.661 440.645 495.489 442.647 495.765C444.955 496.09 447.122 494.234 447.493 491.626C447.861 489.013 446.284 486.639 443.976 486.314C441.96 486.032 440.041 487.418 439.353 489.516C437.12 489.552 434.32 489.374 431.198 488.632C427.956 487.863 425.28 486.718 423.239 485.625C423.475 483.499 423.532 481.34 423.4 479.169C424.463 478.786 425.613 478.436 426.829 478.151C429.97 477.415 432.772 477.268 435.004 477.344C435.658 479.458 437.563 480.871 439.586 480.611C441.899 480.313 443.503 477.953 443.171 475.338C442.834 472.723 440.692 470.846 438.375 471.145C436.345 471.404 434.857 473.264 434.753 475.491C432.674 476.129 429.91 476.718 426.65 476.752C425.415 476.761 424.241 476.692 423.147 476.566C422.889 474.609 422.476 472.653 421.891 470.712C423.658 469.837 425.56 468.97 427.601 468.152C431.198 466.706 434.576 465.658 437.602 464.893C438.735 466.728 440.853 467.625 442.731 466.943C444.922 466.14 445.966 463.482 445.055 461.01C444.149 458.536 441.641 457.178 439.455 457.979Z" fill="#FFD3DC"/>
</g>
<g opacity="0.62">
<path d="M414.319 770.925C376.696 787.086 338.219 795.929 296.225 790.756C249.418 784.986 206.734 748.038 181.5 710.06C172.124 695.954 164.353 680.015 164.127 663.082C163.62 623.965 200.165 617.204 231.839 621.469C249.694 623.865 266.402 630.88 282.922 637.83C310.349 649.378 341.931 653.876 366.944 670.731C375.339 676.405 381.825 683.456 391.404 687.358C406.305 693.431 423.007 695.668 438.258 701.086C451.281 705.739 466.027 713.828 466.946 727.621C467.871 741.767 453.701 751.746 441.1 758.224C432.183 762.836 423.283 767.091 414.319 770.925Z" fill="url(#paint0_linear)"/>
<path d="M239.723 277.325C296.746 180.226 424.773 134.377 532.805 162.432C584.899 175.969 629.928 208.299 671.724 242.184C708.566 272.048 744.536 304.505 770.96 344.264C789.002 371.402 802.804 404.444 813.052 435.464C828.378 481.91 821.234 543.512 759.87 543.038C745.472 542.929 732.739 538.585 719.043 534.952C707.964 532.005 697.484 534.89 686.113 533.84C657.49 531.203 629.518 522.555 602.914 512.023C548.694 490.536 498.428 459.817 442.915 441.511C397.423 426.532 349.485 420.395 301.686 423.429C281.521 424.713 260.413 427.508 241.789 419.669C195.883 400.33 211.958 339.051 226.358 304.23C230.17 294.956 234.636 285.965 239.723 277.325Z" fill="url(#paint1_linear)"/>
<path d="M735.327 259.067C746.328 267.797 788.815 290.815 787.633 260.625C787.328 253.105 783.447 246.037 778.453 240.841C772.739 234.876 766.511 231.958 761.891 224.875C756.245 216.328 749.933 208.36 743.036 201.075C728.921 185.897 712.694 172.082 693.749 166.691C680.461 162.915 658.55 165.513 653.468 182.559C646.063 207.374 684.779 209.305 697.074 217.369C708.741 225 715.977 238.95 725.533 249.787C728.551 253.204 731.83 256.311 735.327 259.067Z" fill="url(#paint2_linear)"/>
<path d="M541.326 242.136C564.172 253.654 581.942 271.966 603.021 286.271C638.114 310.085 684.237 312.415 723.715 327.992C763.97 343.887 795.329 370.626 811.358 411.068C832.063 463.268 837.839 526.576 826.785 582.353C814.608 643.749 779.38 686.304 725.791 716.648C672.234 746.974 611.785 763.44 550.853 770.001C544.973 770.639 539.095 771.16 533.188 771.583C400.502 781.019 220.77 745.83 166.271 606.187C165.772 604.911 165.29 603.634 164.805 602.339C159.112 586.757 155.304 570.549 153.464 554.061C146.794 495.62 152.831 430.24 169.798 373.938C181.207 336.035 208.933 302.806 238.847 278.466C280.875 244.272 334.128 232.769 387.404 225.518C426.855 220.15 471.363 216.224 509.831 228.937C520.644 232.544 531.172 236.956 541.326 242.136Z" fill="url(#paint3_linear)"/>
</g>
<defs>
<filter id="filter0_d" x="-94.6863" y="345.874" width="462.288" height="468.915" filterUnits="userSpaceOnUse" color-interpolation-filters="sRGB">
<feFlood flood-opacity="0" result="BackgroundImageFix"/>
<feColorMatrix in="SourceAlpha" type="matrix" values="0 0 0 0 0 0 0 0 0 0 0 0 0 0 0 0 0 0 127 0"/>
<feOffset dy="4"/>
<feGaussianBlur stdDeviation="2"/>
<feColorMatrix type="matrix" values="0 0 0 0 0 0 0 0 0 0 0 0 0 0 0 0 0 0 0.13 0"/>
<feBlend mode="normal" in2="BackgroundImageFix" result="effect1_dropShadow"/>
<feBlend mode="normal" in="SourceGraphic" in2="effect1_dropShadow" result="shape"/>
</filter>
<filter id="filter1_d" x="284.258" y="381.955" width="204.417" height="204.974" filterUnits="userSpaceOnUse" color-interpolation-filters="sRGB">
<feFlood flood-opacity="0" result="BackgroundImageFix"/>
<feColorMatrix in="SourceAlpha" type="matrix" values="0 0 0 0 0 0 0 0 0 0 0 0 0 0 0 0 0 0 127 0"/>
<feOffset dy="2"/>
<feGaussianBlur stdDeviation="10.5"/>
<feColorMatrix type="matrix" values="0 0 0 0 0.966667 0 0 0 0 0.864839 0 0 0 0 0.890296 0 0 0 1 0"/>
<feBlend mode="normal" in2="BackgroundImageFix" result="effect1_dropShadow"/>
<feBlend mode="normal" in="SourceGraphic" in2="effect1_dropShadow" result="shape"/>
</filter>
<linearGradient id="paint0_linear" x1="161.059" y1="668.687" x2="210.076" y2="804.827" gradientUnits="userSpaceOnUse">
<stop stop-color="#FFD8D8"/>
<stop offset="1" stop-color="#FFF8F8"/>
</linearGradient>
<linearGradient id="paint1_linear" x1="807.47" y1="323.694" x2="370.853" y2="86.345" gradientUnits="userSpaceOnUse">
<stop stop-color="#FFF8F8"/>
<stop offset="1" stop-color="#FFCFCF"/>
</linearGradient>
<linearGradient id="paint2_linear" x1="788.658" y1="260.028" x2="630.938" y2="204.506" gradientUnits="userSpaceOnUse">
<stop stop-color="#FFD7D7"/>
<stop offset="1" stop-color="#FFF9F9"/>
</linearGradient>
<linearGradient id="paint3_linear" x1="782.235" y1="694.48" x2="142.067" y2="377.53" gradientUnits="userSpaceOnUse">
<stop stop-color="#FFCFCF"/>
<stop offset="1" stop-color="#FFF8F8"/>
</linearGradient>
</defs>
</svg>
