<svg width="325" height="326" viewBox="0 0 325 326" fill="none" xmlns="http://www.w3.org/2000/svg">
<path d="M211.175 142.624C212.776 146.434 217.162 148.225 220.972 146.624L236.662 140.032C244.649 136.676 253.309 135.192 261.952 135.793C264.529 135.973 267.197 135.485 269.706 134.228C276.353 130.898 279.561 123.005 277.123 115.981C274.262 107.735 265.098 103.735 257.177 107.063C255.032 107.964 253.206 109.307 251.763 110.942C245.971 117.503 238.931 122.846 230.862 126.236L215.175 132.827C211.365 134.427 209.574 138.814 211.175 142.624Z" fill="#FB4C47"/>
<path d="M136.515 226.692C133.352 225.4 129.741 226.918 128.449 230.081L123.13 243.108C120.423 249.739 116.228 255.669 110.824 260.37C109.212 261.772 107.938 263.617 107.206 265.818C105.267 271.651 108.005 278.141 113.537 280.822C120.031 283.97 127.726 280.951 130.411 274.375C131.139 272.594 131.42 270.742 131.309 268.943C130.859 261.721 131.852 254.482 134.587 247.783L139.905 234.759C141.196 231.595 139.678 227.983 136.515 226.692Z" fill="#C63F3B"/>
<path d="M184.488 109.205C187.798 110.556 191.577 108.969 192.929 105.658L198.494 92.0271C201.328 85.0877 205.717 78.8822 211.372 73.9629C213.058 72.496 214.392 70.5656 215.158 68.2617C217.187 62.1576 214.321 55.3672 208.533 52.5613C201.738 49.2672 193.684 52.4265 190.875 59.3076C190.114 61.1716 189.819 63.1096 189.936 64.9925C190.406 72.5499 189.368 80.1245 186.506 87.1348L180.941 100.764C179.59 104.074 181.178 107.853 184.488 109.205Z" fill="#C63F3B"/>
<path d="M182.948 211.774C179.138 213.374 177.346 217.761 178.947 221.571L185.539 237.261C188.895 245.248 190.38 253.908 189.778 262.551C189.599 265.127 190.087 267.796 191.343 270.304C194.674 276.952 202.566 280.16 209.59 277.722C217.837 274.86 221.836 265.697 218.508 257.776C217.607 255.63 216.264 253.805 214.629 252.362C208.068 246.57 202.726 239.53 199.336 231.461L192.745 215.774C191.144 211.964 186.758 210.173 182.948 211.774Z" fill="#FB4C47"/>
<path d="M214.627 252.363C208.066 246.57 202.723 239.531 199.333 231.462L192.742 215.774C191.141 211.964 186.755 210.173 182.944 211.774C179.134 213.375 177.343 217.761 178.944 221.571L185.535 237.259C188.926 245.328 194.268 252.367 200.829 258.16C202.464 259.603 203.807 261.428 204.708 263.574C206.852 268.677 205.951 274.293 202.837 278.41C205.059 278.698 207.367 278.494 209.588 277.723C217.834 274.861 221.834 265.697 218.506 257.777C217.605 255.631 216.262 253.806 214.627 252.363Z" fill="#C63F3B"/>
<path d="M99.0291 156.224C111.476 150.994 117.326 136.665 112.097 124.219C106.867 111.772 92.5381 105.922 80.0917 111.151C67.6453 116.381 61.7947 130.71 67.0241 143.156C72.2536 155.603 86.5827 161.453 99.0291 156.224Z" fill="#FF8F8C"/>
<path d="M80.097 111.15C77.6902 112.162 75.5333 113.516 73.6517 115.129C83.9472 114.232 94.086 119.976 98.304 130.015C102.522 140.055 99.5281 151.316 91.6817 158.042C94.1499 157.827 96.6272 157.234 99.0344 156.223C111.481 150.994 117.331 136.665 112.102 124.218C106.872 111.771 92.5431 105.921 80.097 111.15Z" fill="#FB4C47"/>
<path d="M193.405 236.669C234.046 219.593 253.149 172.805 236.074 132.165C218.999 91.524 172.211 72.4205 131.57 89.4959C90.9294 106.571 71.826 153.359 88.9013 194C105.977 234.641 152.765 253.744 193.405 236.669Z" fill="#FB4C47"/>
<path d="M131.57 89.4952C129.244 90.4728 126.991 91.5522 124.808 92.7184C163.675 80.4811 206.18 99.6474 222.277 137.961C238.375 176.274 222.315 220.047 186.371 239.242C188.731 238.499 191.079 237.645 193.406 236.668C234.047 219.592 253.15 172.805 236.075 132.164C219 91.5229 172.211 72.4198 131.57 89.4952Z" fill="#C63F3B"/>
<path d="M185.796 141.281C194.051 137.813 197.932 128.309 194.463 120.054C190.995 111.798 181.491 107.918 173.236 111.387C164.98 114.855 161.1 124.359 164.569 132.614C168.037 140.869 177.541 144.75 185.796 141.281Z" fill="#C63F3B"/>
<path d="M173.234 111.387C170.745 112.433 168.657 114.03 167.045 115.974C172.874 116.458 178.242 120.085 180.664 125.851C183.087 131.617 181.921 137.989 178.186 142.492C180.703 142.701 183.305 142.327 185.795 141.281C194.05 137.813 197.93 128.309 194.462 120.054C190.993 111.799 181.49 107.918 173.234 111.387Z" fill="white"/>
<path d="M152.514 212.999C158.103 210.651 160.729 204.217 158.381 198.629C156.033 193.041 149.6 190.414 144.012 192.762C138.423 195.11 135.797 201.543 138.145 207.132C140.493 212.72 146.926 215.347 152.514 212.999Z" fill="white"/>
<path d="M241.278 210.422C248.898 207.22 252.48 198.447 249.278 190.827C246.076 183.207 237.304 179.625 229.683 182.826C222.063 186.028 218.481 194.801 221.683 202.421C224.885 210.041 233.657 213.623 241.278 210.422Z" fill="#FB4C47"/>
<path d="M229.683 182.827C227.169 183.883 225.097 185.549 223.561 187.576C228.686 188.23 233.334 191.518 235.48 196.625C237.625 201.731 236.721 207.353 233.601 211.471C236.124 211.793 238.763 211.479 241.277 210.423C248.898 207.221 252.479 198.448 249.278 190.828C246.076 183.208 237.303 179.625 229.683 182.827Z" fill="#C63F3B"/>
<path d="M113.791 183.54C115.392 187.35 113.602 191.737 109.791 193.338L94.1015 199.93C86.1142 203.286 78.9926 208.432 73.3733 215.026C71.6981 216.992 69.4821 218.556 66.8284 219.468C59.797 221.885 51.915 218.652 48.6042 211.995C44.7174 204.179 48.2746 194.835 56.1953 191.507C58.3409 190.605 60.5775 190.242 62.7551 190.355C71.4954 190.81 80.2382 189.522 88.3072 186.131L103.995 179.54C107.804 177.939 112.191 179.73 113.791 183.54Z" fill="#C63F3B"/>
<path d="M142.035 114.389C145.845 112.788 147.637 108.402 146.036 104.592L139.443 88.902C136.088 80.9147 134.603 72.2547 135.205 63.612C135.384 61.0353 134.896 58.3673 133.639 55.8583C130.309 49.2108 122.417 46.0031 115.392 48.4407C107.146 51.3025 103.146 60.4662 106.474 68.387C107.376 70.5326 108.719 72.3577 110.354 73.8007C116.915 79.593 122.257 86.6327 125.647 94.7017L132.239 110.389C133.839 114.199 138.225 115.99 142.035 114.389Z" fill="#FB4C47"/>
<path d="M133.64 55.8582C130.31 49.2106 122.418 46.003 115.393 48.4406C112.459 49.4585 110.067 51.2767 108.347 53.5506C113.154 54.1742 117.565 57.1098 119.843 61.6554C121.099 64.1643 121.588 66.8324 121.408 69.4091C120.806 78.0517 122.291 86.7118 125.647 94.6991L132.239 110.389C133.839 114.199 138.226 115.99 142.036 114.389C145.847 112.788 147.637 108.402 146.036 104.592L139.444 88.9019C136.088 80.9146 134.604 72.2545 135.206 63.6119C135.385 61.0352 134.898 58.3669 133.64 55.8582Z" fill="#C63F3B"/>
</svg>
