<svg width="1171" height="750" viewBox="0 0 1171 750" fill="none" xmlns="http://www.w3.org/2000/svg">
<path d="M584.071 311.303C583.731 311.303 583.387 311.194 583.094 310.969C582.827 310.759 576.499 305.76 571.666 295.563C567.233 286.211 563.298 270.535 569.706 248.922C574.052 234.26 578.408 223.837 582.248 214.635C589.222 197.941 594.262 185.879 594.669 160.307C594.682 159.432 595.328 158.681 596.283 158.742C597.164 158.758 597.864 159.477 597.851 160.358C597.434 186.54 592.029 199.481 585.185 215.863C581.373 224.989 577.055 235.329 572.757 249.828C561.07 289.231 584.809 308.27 585.051 308.455C585.742 308.996 585.866 309.995 585.328 310.689C585.013 311.093 584.545 311.303 584.071 311.303Z" fill="#000C3E"/>
<path d="M714.439 60.0361C714.2 77.3702 699.956 91.233 682.618 90.9944C665.284 90.7558 651.425 76.5112 651.66 59.1739C651.899 41.8398 666.146 27.9802 683.481 28.2156C700.815 28.4542 714.677 42.702 714.439 60.0361Z" fill="#000C3E"/>
<path d="M581.034 300.09C581.034 300.09 590.69 318.859 628.448 324.646C666.202 330.431 695.388 316.125 724.663 325.963C753.938 335.805 795.546 321.092 803.567 308.699C811.591 296.306 806.641 161.283 783.217 139.18C759.793 117.076 639.431 101.021 614.073 128.139C588.714 155.26 564.189 285.269 581.034 300.09Z" fill="#000C3E"/>
<path d="M795.578 188.381C794.795 245.509 747.848 291.186 690.717 290.403C633.589 289.62 587.912 242.671 588.695 185.543C589.481 128.415 636.427 82.7378 693.555 83.5205C750.683 84.3064 796.36 131.253 795.578 188.381Z" fill="#000C3E"/>
<path d="M607.605 185.087C607.605 185.087 614.837 310.521 699.84 313.925C784.84 317.33 780.555 140.46 749.441 124.364C718.326 108.271 590.227 114.472 607.605 185.087Z" fill="#FFCEB0"/>
<path d="M695.384 209.892C695.384 209.892 712.511 248.146 708.4 250.806C704.289 253.462 692.071 253.297 688.715 250.535C685.358 247.773 688.651 205.727 695.384 209.892Z" fill="#F5A473"/>
<path d="M670.273 223.427C670.161 227.83 666.502 231.311 662.099 231.2C657.695 231.092 654.215 227.433 654.326 223.029C654.434 218.626 658.093 215.145 662.5 215.253C666.903 215.364 670.384 219.023 670.273 223.427Z" fill="#41294A"/>
<path d="M738.65 218.046C738.538 222.449 734.879 225.93 730.476 225.819C726.072 225.711 722.592 222.052 722.703 217.648C722.811 213.244 726.47 209.764 730.877 209.872C735.28 209.983 738.761 213.642 738.65 218.046Z" fill="#41294A"/>
<path d="M672.841 116.554C672.841 116.554 642.758 131.995 637.626 159.759C632.49 187.523 637.164 258.192 604.844 255.714C604.844 255.714 539.091 117.197 672.841 116.554Z" fill="#41294A"/>
<path d="M688.895 116.774C686.181 118.817 720.318 117.923 740.398 141.121C760.481 164.319 766.52 223.343 769.565 224.368C772.61 225.396 782.897 150.736 760.968 128.9C739.04 107.067 704.34 105.152 688.895 116.774Z" fill="#41294A"/>
<path d="M762.364 229.584C762.364 229.584 769.742 197.964 784.181 208.814C798.62 219.664 786.577 252.808 772.638 256.12C758.702 259.432 755.011 245.967 762.364 229.584Z" fill="#FFCEB0"/>
<path d="M628.386 227.747C628.386 227.747 621.876 195.936 607.144 206.385C592.416 216.834 603.546 250.299 617.386 253.993C631.23 257.684 635.287 244.327 628.386 227.747Z" fill="#FFCEB0"/>
<path d="M726.823 189.911C726.823 189.911 741.834 181.992 751.084 193.37C759.219 203.373 740.651 195.266 733.816 196.561C726.979 197.859 717.949 197.293 726.823 189.911Z" fill="#41294A"/>
<path d="M667.166 192.794C667.166 192.794 651.77 185.651 643.112 197.484C635.498 207.891 653.628 198.845 660.523 199.794C667.414 200.739 676.406 199.711 667.166 192.794Z" fill="#41294A"/>
<path d="M721.372 274.181C721.372 274.181 711.578 259.382 700.983 260.315C690.385 261.25 682.262 274.89 680.836 275.463C680.836 275.463 697.375 283.229 721.372 274.181Z" fill="#41294A"/>
<path d="M661.812 205.668C648.554 205.668 637.618 216.461 637.433 229.722C637.348 236.232 639.797 242.392 644.341 247.062C648.884 251.73 654.971 254.349 661.484 254.438L661.825 254.441C675.083 254.441 686.018 243.652 686.2 230.39C686.384 216.947 675.598 205.859 662.152 205.671L661.812 205.668ZM661.825 257.623L661.44 257.619C654.077 257.521 647.195 254.555 642.06 249.28C636.924 244.002 634.153 237.04 634.252 229.677C634.459 214.685 646.823 202.486 661.812 202.486L662.197 202.49C677.396 202.7 689.588 215.236 689.382 230.432C689.178 245.424 676.814 257.623 661.825 257.623Z" fill="#FFFCF6"/>
<path d="M730.677 200.156C717.416 200.156 706.48 210.949 706.299 224.21C706.114 237.65 716.904 248.741 730.347 248.926L730.687 248.929C743.948 248.929 754.884 238.14 755.065 224.878C755.154 218.365 752.701 212.206 748.161 207.535C743.618 202.87 737.531 200.249 731.018 200.159L730.677 200.156ZM730.687 252.111L730.305 252.108C715.103 251.898 702.91 239.362 703.117 224.166C703.324 209.173 715.685 196.975 730.677 196.975L731.062 196.978C738.425 197.076 745.307 200.042 750.439 205.317C755.578 210.596 758.349 217.557 758.247 224.92C758.04 239.912 745.676 252.111 730.687 252.111Z" fill="#FFFCF6"/>
<path d="M636.526 225.728C636.345 225.728 636.157 225.696 635.979 225.632L625.775 221.884C624.951 221.579 624.528 220.666 624.83 219.838C625.132 219.017 626.052 218.601 626.873 218.896L637.073 222.641C637.9 222.947 638.32 223.86 638.018 224.687C637.783 225.33 637.175 225.728 636.526 225.728Z" fill="#FFFCF6"/>
<path d="M755.513 218.497C754.835 218.497 754.205 218.061 753.995 217.38C753.731 216.544 754.199 215.65 755.039 215.385L768.984 211.033C769.818 210.766 770.715 211.24 770.976 212.076C771.24 212.916 770.772 213.807 769.932 214.071L755.987 218.427C755.831 218.475 755.669 218.497 755.513 218.497Z" fill="#FFFCF6"/>
<path d="M688.398 145.943C688.398 145.943 688.427 177.674 707.33 183.404C726.229 189.138 774.849 186.608 774.356 178.854C769.905 108.847 736.996 112.369 709.512 103.409C661.312 87.7009 621.891 166.401 627.793 185.002C633.695 203.599 674.376 186.233 683.085 183.617C691.79 180.999 686.967 159.436 688.398 145.943Z" fill="#000C3E"/>
<g opacity="0.210007">
<g opacity="0.210007">
<path opacity="0.210007" d="M639.654 253.112C639.654 253.112 682.534 228.371 701.354 231.83C720.174 235.291 753.204 235.832 754.699 242.584C756.198 249.332 712.825 246.291 699.484 247.589C686.143 248.887 634.926 264.245 639.654 253.112Z" fill="#DB5C5D"/>
</g>
</g>
<path d="M663.652 236.556C663.025 236.556 662.43 236.184 662.179 235.564C661.848 234.752 662.239 233.823 663.054 233.492C667.365 231.736 668.164 230.352 668.17 230.339C668.453 229.506 669.325 229.118 670.165 229.413C670.995 229.697 671.412 230.664 671.129 231.498C670.929 232.083 669.844 234.164 664.25 236.439C664.053 236.518 663.852 236.556 663.652 236.556Z" fill="#DB5C5D"/>
<path d="M729.163 233.188C727.881 233.188 725.717 232.8 722.319 231.143C721.527 230.761 721.199 229.809 721.584 229.017C721.966 228.228 722.924 227.904 723.71 228.285C727.9 230.325 729.459 229.984 729.478 229.984C730.29 229.644 731.155 230.042 731.499 230.85C731.842 231.658 731.403 232.613 730.592 232.959C730.382 233.048 729.93 233.188 729.163 233.188Z" fill="#DB5C5D"/>
<path d="M687.767 230.541C686.962 230.541 686.269 229.934 686.186 229.113C686.097 228.238 686.733 227.455 687.608 227.369L704.681 225.626C705.537 225.517 706.336 226.17 706.425 227.045C706.514 227.92 705.878 228.702 705.003 228.788L687.929 230.532C687.875 230.538 687.821 230.541 687.767 230.541Z" fill="#FFFCF6"/>
<path d="M664.127 90.5662C663.894 90.5662 663.656 90.5153 663.433 90.4039C654.406 86.0163 648.947 79.7578 647.197 71.8003C643.315 54.1321 659.1 34.5836 659.774 33.7595C660.334 33.0786 661.333 32.98 662.011 33.5368C662.692 34.0936 662.794 35.0926 662.237 35.7735C662.081 35.9644 646.751 54.9689 650.305 71.1258C651.836 78.081 656.72 83.6045 664.823 87.5467C665.613 87.9285 665.943 88.883 665.558 89.6721C665.285 90.2353 664.718 90.5662 664.127 90.5662Z" fill="#000C3E"/>
<path d="M700.456 95.2947C700.014 95.2947 699.575 95.1101 699.26 94.7538C698.681 94.092 698.745 93.0897 699.406 92.5075C699.591 92.3452 717.835 76.1215 716.982 59.5988C716.616 52.4876 712.706 46.2355 705.359 41.0143C704.643 40.5084 704.475 39.5157 704.984 38.7966C705.493 38.0839 706.486 37.9153 707.202 38.4244C715.382 44.2342 719.744 51.3072 720.161 59.4461C721.083 77.5088 702.305 94.197 701.503 94.9001C701.201 95.1642 700.829 95.2947 700.456 95.2947Z" fill="#000C3E"/>
<path d="M795.087 304.181C794.625 304.181 794.167 303.984 793.852 303.593C793.298 302.915 793.4 301.913 794.081 301.356C794.291 301.184 815.217 283.707 809.156 256.058C806.821 245.399 802.726 233.671 798.389 221.256C790.871 199.725 783.095 177.459 782.461 155.874C782.436 154.993 783.13 154.265 784.008 154.236C784.832 154.265 785.618 154.901 785.643 155.779C786.264 176.874 793.954 198.904 801.393 220.206C805.761 232.717 809.888 244.53 812.265 255.374C818.752 284.98 796.318 303.641 796.089 303.825C795.793 304.064 795.44 304.181 795.087 304.181Z" fill="#000C3E"/>
<path d="M800.737 190.552C800.686 190.552 800.632 190.549 800.578 190.546C799.706 190.46 799.067 189.68 799.153 188.805C801.902 160.968 796.044 138.375 781.749 121.642C758.729 94.7086 721.331 92.2364 720.959 92.2141C720.08 92.1632 719.409 91.4123 719.463 90.531C719.511 89.656 720.265 88.9624 721.14 89.0387C721.531 89.061 760.278 91.6191 784.167 119.574C799.048 136.991 805.157 160.389 802.319 189.117C802.239 189.941 801.546 190.552 800.737 190.552Z" fill="#000C3E"/>
<path d="M686.793 277.321C686.793 277.321 702.648 266.198 716.807 275.734C716.807 275.734 700.274 281.929 686.793 277.321Z" fill="#DB5C5D"/>
<path d="M697.284 288.741C695.718 288.741 694.373 288.725 693.542 288.713C692.664 288.7 691.964 287.978 691.977 287.096C691.989 286.218 692.591 285.505 693.593 285.531C699.6 285.61 706.778 285.464 707.895 285.041C708.713 284.729 709.635 285.136 709.95 285.954C710.265 286.775 709.864 287.688 709.047 288.006C707.456 288.624 701.551 288.741 697.284 288.741Z" fill="#DB5C5D"/>
<path d="M620.119 245.204C619.976 245.204 619.833 245.185 619.69 245.144C618.844 244.908 618.35 244.033 618.586 243.184C622.938 227.584 611.382 217.539 611.265 217.437C610.597 216.871 610.514 215.865 611.083 215.194C611.65 214.526 612.655 214.443 613.326 215.016C613.867 215.474 626.547 226.499 621.65 244.043C621.453 244.743 620.816 245.204 620.119 245.204Z" fill="#DB5C5D"/>
<path d="M768.559 249.004C768.524 249.004 768.492 249.004 768.454 249.001C767.579 248.943 766.914 248.186 766.968 247.311C768.158 228.847 777.007 218.978 777.385 218.567C777.977 217.918 778.983 217.874 779.629 218.465C780.278 219.057 780.322 220.063 779.734 220.712C779.648 220.807 771.257 230.235 770.147 247.515C770.09 248.358 769.39 249.004 768.559 249.004Z" fill="#DB5C5D"/>
<path d="M736.612 300.942C736.612 300.942 741.671 357.535 734.957 366.485C728.244 375.439 685.723 368.722 674.533 366.485C663.343 364.249 663.32 270.648 665.579 276.97C684.263 329.186 735.323 282.978 736.612 300.942Z" fill="#FFCEB0"/>
<path d="M669.626 306.539C669.626 306.539 699.792 321.039 734.084 303.488C734.084 303.488 736.751 324.57 734.084 329.432C731.421 334.294 677.099 337.768 666.406 313.806C666.406 313.806 666.539 305.499 669.626 306.539Z" fill="#F5A473"/>
<path d="M504.888 749.877H895.262C895.262 749.877 915.201 410.475 866.301 373.567C817.398 336.656 602.125 355.094 551.443 386.622C500.762 418.149 504.888 749.877 504.888 749.877Z" fill="#FB4C47"/>
<path d="M699.792 359.778C699.792 359.778 684.746 490.242 691.313 508.4C697.877 526.558 689.468 607.066 686.795 617.531C684.119 627.995 603.013 632.44 582.084 624.069C561.155 615.698 587.417 390.046 599.132 348.299C610.85 306.548 698.504 331.146 699.792 359.778Z" fill="#05BA6E"/>
<path d="M461.609 199.933C461.609 199.933 494.237 262.425 517.104 263.004C539.975 263.584 617.093 169.668 645.529 168.701C673.967 167.737 698.387 170.496 698.498 163.718C698.609 156.938 658.946 149.537 658.946 149.537C658.946 149.537 716.306 153.19 704.442 146.916C692.58 140.641 664.154 135 664.154 135C664.154 135 705.38 136.664 705.679 132.254C705.978 127.844 662.758 121.35 662.758 121.35C662.758 121.35 715.352 119.671 705.733 112.435C696.112 105.2 678.005 108.34 629.028 115.821C580.049 123.301 469.241 188.689 461.609 199.933Z" fill="#FFCEB0"/>
<path d="M518.853 196.939C518.853 196.939 571.05 228.031 548.322 263.266C524.122 300.785 525.478 289.639 521.294 304.819C517.106 319.999 586.08 349.564 589.217 362.558C592.354 375.549 559.84 535.332 529.385 528.775C502.875 523.07 355.554 439.467 334.383 355.921C317.971 291.15 451.741 132.722 518.853 196.939Z" fill="#FB4C47"/>
<path d="M655.485 561.399C655.485 561.399 597.65 688.802 618.914 705.862C640.177 722.92 657.311 711.806 676.115 722.878C694.922 733.951 712.963 728.415 728.07 718.78C743.176 709.143 703.86 582.392 687.598 570.324C671.336 558.252 658.415 554.778 655.485 561.399Z" fill="white"/>
<path d="M847.641 364.501C847.641 364.501 878.739 368.297 903.149 413.001C921.463 446.541 956.944 642.53 903.149 670.455C849.355 698.378 798.9 683.772 779.375 664.954C759.848 646.136 794.59 549.155 817.747 541.916C840.908 534.68 847.641 364.501 847.641 364.501Z" fill="#FB4C47"/>
<path d="M857.71 361.497C857.71 361.497 859.164 352.435 814.381 333.055C778.644 317.589 748.032 343.692 693.52 346.501C639.007 349.314 643.926 327.707 605.367 337.748C545.862 353.24 593.238 392.245 612.411 396.623C631.584 401.001 695.82 508.986 857.71 361.497Z" fill="#05BA6E"/>
<path d="M701.419 252.601C701.419 252.601 701.253 256.292 703.372 256.626C705.492 256.96 709.408 255.776 708.4 250.803C708.4 250.803 703.086 252.512 701.419 252.601Z" fill="white"/>
<path d="M922.153 558.319C922.004 558.319 921.851 558.31 921.699 558.287C920.229 558.077 919.14 556.894 918.984 555.484C916.334 552.42 898.539 546.003 886.668 541.72C863.148 533.234 852.601 529.038 850.332 524.446C848.407 520.555 849.27 514.942 850.361 507.838C852.089 496.593 854.243 482.594 847.103 469.11C834.774 445.823 835.948 411.282 836.005 409.824C836.075 408.068 837.593 406.662 839.304 406.767C841.061 406.834 842.429 408.313 842.365 410.066C842.349 410.41 841.204 444.372 852.728 466.132C860.851 481.48 858.423 497.271 856.651 508.802C855.802 514.322 855.003 519.537 856.037 521.627C857.965 524.602 876.537 531.303 888.825 535.735C916.519 545.726 926.134 549.744 925.297 555.589C925.071 557.177 923.709 558.319 922.153 558.319Z" fill="#B31B1F"/>
<path d="M839.14 532.159C838.863 532.159 838.583 532.124 838.3 532.048C827.787 529.181 811.455 526.197 811.293 526.165C809.562 525.853 808.417 524.195 808.732 522.468C809.047 520.737 810.698 519.572 812.432 519.906C813.11 520.027 829.193 522.967 839.973 525.907C841.669 526.372 842.668 528.119 842.207 529.814C841.822 531.23 840.539 532.159 839.14 532.159Z" fill="#B31B1F"/>
<path d="M896.293 689.54C896.242 689.54 896.194 689.54 896.146 689.537C837.252 686.868 778.575 661.78 775.403 637.917C774.407 630.417 773.688 626.666 773.242 624.811C772.052 624.219 771.33 622.953 771.543 621.569C771.947 618.947 773.723 618.018 775.132 618.018H775.167C778.371 618.053 779.434 619.93 781.712 637.08C784.175 655.604 837.596 680.514 896.433 683.18C898.189 683.26 899.548 684.746 899.468 686.502C899.392 688.21 897.982 689.54 896.293 689.54Z" fill="#B31B1F"/>
<path d="M790.716 633.227C790.484 633.227 790.249 633.201 790.01 633.15C788.298 632.762 787.223 631.057 787.611 629.342C787.748 628.728 801.665 567.384 814.672 523.256C815.168 521.57 816.95 520.603 818.623 521.105C820.31 521.602 821.274 523.371 820.774 525.057C807.825 568.987 793.955 630.134 793.819 630.748C793.481 632.224 792.17 633.227 790.716 633.227Z" fill="#B31B1F"/>
<path d="M514.64 499.995C514.484 499.995 514.322 499.982 514.162 499.96C512.425 499.699 511.229 498.077 511.49 496.343C511.818 494.147 519.673 442.301 530.453 418.04C540.934 394.463 546.298 370.559 546.352 370.32C546.728 368.605 548.423 367.533 550.148 367.902C551.863 368.284 552.945 369.986 552.563 371.701C552.343 372.7 547.004 396.468 536.269 420.627C525.839 444.098 517.86 496.756 517.78 497.284C517.545 498.866 516.186 499.995 514.64 499.995Z" fill="#B31B1F"/>
<path d="M466.137 318.978C457.667 318.978 448.176 318.462 437.727 317.132C435.983 316.91 434.749 315.319 434.972 313.575C435.191 311.832 436.823 310.619 438.529 310.82C470.346 314.873 492.949 311.141 504.601 308.599C498.797 306.744 490.668 304.937 482.554 305.379C464.298 306.238 437.584 289.929 436.454 289.229C434.959 288.306 434.497 286.346 435.42 284.851C436.343 283.355 438.306 282.887 439.798 283.817C440.059 283.976 465.99 299.817 482.227 299.022C497.693 298.207 516.01 305.096 517.674 308.052C518.269 309.105 518.222 310.473 517.544 311.475C516.914 312.401 515.609 312.958 514.464 312.888C513.961 312.945 512.472 313.302 511.025 313.645C504.066 315.312 488.73 318.975 466.137 318.978Z" fill="#B31B1F"/>
<path d="M544.348 250.595C543.164 250.595 542.028 249.933 541.481 248.8C541.401 248.638 533.457 232.5 519.928 226.105C504.57 218.841 487.2 193.524 486.469 192.452C485.479 190.998 485.855 189.015 487.305 188.029C488.763 187.043 490.739 187.421 491.725 188.866C491.897 189.114 508.852 213.823 522.651 220.349C538.242 227.727 546.852 245.287 547.211 246.029C547.975 247.613 547.31 249.51 545.728 250.273C545.283 250.493 544.812 250.595 544.348 250.595Z" fill="#B31B1F"/>
<path d="M692.136 435.502C692.019 435.502 691.898 435.489 691.78 435.46C690.924 435.266 690.386 434.41 690.584 433.558C690.66 433.22 698.249 400.048 700.469 383.197C703.928 356.926 692.162 347.762 692.044 347.673C691.341 347.145 691.195 346.152 691.716 345.449C692.238 344.743 693.225 344.593 693.931 345.112C694.481 345.516 707.348 355.319 703.622 383.611C701.386 400.614 693.762 433.933 693.686 434.264C693.517 435.005 692.862 435.502 692.136 435.502Z" fill="#08824F"/>
<path d="M598.302 387.658L595.143 387.292C595.143 387.292 597.612 365.812 598.9 355.252C600.202 344.599 603.24 337.326 603.371 337.02C603.711 336.206 604.646 335.837 605.455 336.171C606.263 336.514 606.641 337.45 606.301 338.258C606.269 338.328 603.301 345.455 602.06 355.64C600.771 366.191 598.302 387.655 598.302 387.658Z" fill="#08824F"/>
<path d="M688.647 740.386C670.502 740.386 660.524 739.788 646.715 738.961C628.952 737.895 604.627 736.438 547.783 735.553C546.026 735.528 544.623 734.083 544.652 732.324C544.68 730.568 546.227 729.104 547.881 729.19C604.866 730.074 629.273 731.541 647.094 732.61C660.794 733.428 670.69 734.023 688.647 734.023C711.126 734.023 731.292 731.56 750.796 729.18C767.917 727.087 784.087 725.114 801.418 724.729C838.386 723.915 866.013 724.726 866.287 724.729C868.043 724.786 869.424 726.253 869.37 728.006C869.316 729.763 867.833 731.064 866.096 731.092C865.822 731.083 838.351 730.268 801.561 731.092C784.545 731.468 768.525 733.425 751.566 735.496C731.874 737.901 711.514 740.386 688.647 740.386Z" fill="#B31B1F"/>
<path d="M832.783 697.933C831.201 697.933 829.617 697.224 828.236 695.136C823.937 688.642 822.639 688.108 814.329 689.387C806.81 690.561 803.842 685.232 801.875 681.709C801.22 680.532 800.596 679.422 800.052 678.992C798.589 677.837 794.933 679.224 793.386 680.077L791.843 677.296C792.518 676.921 798.512 673.723 802.025 676.495C803.065 677.319 803.8 678.636 804.653 680.157C806.552 683.552 808.519 687.048 813.842 686.243C823.355 684.773 825.897 685.846 830.889 693.38C832.213 695.385 833.359 695.111 836.887 693.052C839.566 691.481 843.629 689.11 846.658 693.342L844.075 695.194C842.894 693.555 841.825 693.851 838.491 695.798C836.897 696.73 834.841 697.933 832.783 697.933Z" fill="white"/>
<path d="M795.764 548.085C795.764 548.085 719.765 520.605 686.792 534.662C653.82 548.715 626.648 584.949 631.682 587.345C636.715 589.744 663.652 568.852 663.652 568.852C663.652 568.852 636.184 596.61 641.278 599.388C646.372 602.165 672.84 587.345 672.84 587.345C672.84 587.345 654.364 607.097 662.299 608.608C670.235 610.12 687.247 593.845 704.989 593.234C722.733 592.62 745.094 606.642 767.277 610.59C789.457 614.536 795.764 548.085 795.764 548.085Z" fill="#FFCEB0"/>
<path d="M910.457 533.841C910.26 533.841 910.063 533.821 909.862 533.783C909.64 533.745 887.259 529.513 860.504 524.073C858.783 523.723 857.669 522.043 858.019 520.321C858.366 518.6 860.043 517.486 861.771 517.84C888.481 523.268 910.823 527.49 911.046 527.534C912.774 527.859 913.906 529.523 913.579 531.251C913.292 532.778 911.956 533.841 910.457 533.841Z" fill="#B31B1F"/>
<path fill-rule="evenodd" clip-rule="evenodd" d="M698.05 33.7701C697.218 33.7701 696.315 33.8667 695.337 34.0598C692.951 34.5386 691.406 35.6976 690.478 37.7092C686.341 46.6624 695.064 67.9872 701.296 80.5856C705.147 66.6098 709.762 43.2482 703.24 35.8866C701.984 34.4714 700.275 33.7701 698.05 33.7701ZM701.479 91.0493C701.578 91.0685 701.679 91.0824 701.782 91.0909C702.113 91.2185 702.467 91.2844 702.825 91.2844C703.157 91.2844 703.488 91.2298 703.812 91.1122C708.062 89.5626 745.483 75.528 750.144 59.356C751.266 55.4673 750.476 51.6332 747.864 48.2736C743.421 42.554 738.621 41.8737 735.375 42.3062C726.164 43.5346 717.097 55.4351 710.447 66.7405C712.799 53.8632 713.705 38.9928 707.561 32.0567C705.394 29.6084 701.313 26.9838 694.207 28.399C690.037 29.2305 686.934 31.6158 685.237 35.2903C678.96 48.8873 693.401 78.1696 698.214 87.2444C692.145 88.4158 686.041 88.6802 680.203 88.2834C667.623 87.4285 656.473 83.5167 649.816 79.2373L647.437 82.9385C654.803 87.6738 666.692 91.7753 679.904 92.6733C686.834 93.1442 694.182 92.7374 701.479 91.0493ZM736.966 47.9713C736.694 47.9713 736.416 47.9881 736.139 48.03C726.384 49.3277 714.596 70.0184 708.364 83.1081C721.319 77.653 741.867 67.2341 744.597 57.7602C745.21 55.6269 744.798 53.7413 743.308 51.818C741.3 49.2353 739.222 47.9713 736.966 47.9713Z" fill="#FFD310"/>
<path d="M197.27 117.75H310.515C317.784 117.75 324.662 121.045 329.218 126.711L362.458 168.048C367.173 173.911 374.363 177.224 381.883 176.998L594.85 170.597" stroke="#FFB2B1" stroke-width="5" stroke-linejoin="round"/>
<path d="M209.361 118.266C209.361 123.302 205.279 127.384 200.243 127.384C195.207 127.384 191.124 123.302 191.124 118.266C191.124 113.23 195.207 109.148 200.243 109.148C205.279 109.148 209.361 113.23 209.361 118.266Z" fill="#FF383D"/>
<path d="M11.0007 118.367C11.0007 79.3569 42.625 47.7326 81.6348 47.7326C120.645 47.7326 152.266 79.3569 152.266 118.367C152.266 157.376 120.645 189.001 81.6348 189.001C42.625 189.001 11.0007 157.376 11.0007 118.367Z" fill="#FFE1E2"/>
<path d="M81.3303 30.4911C130.103 30.4911 169.64 70.0288 169.64 118.801C169.64 167.573 130.103 207.114 81.3303 207.114V250.725" stroke="#FFD6D7" stroke-width="2.4" stroke-miterlimit="10"/>
<path d="M74.0679 252.928C74.0679 248.917 77.3185 245.666 81.3301 245.666C85.3418 245.666 88.5924 248.917 88.5924 252.928C88.5924 256.94 85.3418 260.19 81.3301 260.19C77.3185 260.19 74.0679 256.94 74.0679 252.928Z" fill="#F2AEB0"/>
<path d="M650.77 232.046H819.584C828.398 232.046 836.503 236.878 840.695 244.631L871.944 302.42C876.136 310.173 884.241 315.004 893.055 315.004H975.84" stroke="#FFB2B1" stroke-width="5" stroke-linejoin="round"/>
<path d="M979.944 314.905C979.944 319.941 975.862 324.024 970.826 324.024C965.79 324.024 961.708 319.941 961.708 314.905C961.708 309.869 965.79 305.787 970.826 305.787C975.862 305.787 979.944 309.869 979.944 314.905Z" fill="#FF383D"/>
<path opacity="0.15" d="M1005.73 333.367C1005.73 294.357 1037.36 262.733 1076.37 262.733C1115.38 262.733 1147 294.357 1147 333.367C1147 372.376 1115.38 404.001 1076.37 404.001C1037.36 404.001 1005.73 372.376 1005.73 333.367Z" fill="#FF383D"/>
<path d="M1026.53 330.908C1026.37 332.577 1025.75 333.88 1024.68 334.818C1023.61 335.749 1022.18 336.215 1020.39 336.215C1019.15 336.215 1018.05 335.921 1017.1 335.334C1016.15 334.74 1015.42 333.898 1014.9 332.81C1014.39 331.721 1014.12 330.457 1014.1 329.018V327.557C1014.1 326.081 1014.36 324.782 1014.88 323.657C1015.41 322.533 1016.15 321.666 1017.13 321.058C1018.11 320.449 1019.24 320.144 1020.52 320.144C1022.25 320.144 1023.64 320.614 1024.69 321.552C1025.74 322.49 1026.36 323.815 1026.53 325.526H1023.82C1023.69 324.402 1023.36 323.593 1022.83 323.099C1022.31 322.597 1021.54 322.347 1020.52 322.347C1019.34 322.347 1018.43 322.78 1017.79 323.646C1017.16 324.506 1016.84 325.77 1016.83 327.438V328.824C1016.83 330.514 1017.13 331.803 1017.73 332.691C1018.34 333.579 1019.23 334.023 1020.39 334.023C1021.46 334.023 1022.26 333.783 1022.8 333.304C1023.34 332.824 1023.68 332.025 1023.82 330.908H1026.53ZM1041.45 328.588C1041.45 330.12 1041.18 331.467 1040.65 332.627C1040.12 333.78 1039.36 334.668 1038.38 335.291C1037.4 335.907 1036.26 336.215 1034.98 336.215C1033.71 336.215 1032.58 335.907 1031.59 335.291C1030.6 334.668 1029.83 333.783 1029.29 332.638C1028.75 331.492 1028.48 330.171 1028.47 328.674V327.793C1028.47 326.268 1028.74 324.921 1029.28 323.754C1029.82 322.587 1030.58 321.695 1031.57 321.079C1032.55 320.456 1033.69 320.144 1034.96 320.144C1036.24 320.144 1037.36 320.452 1038.34 321.068C1039.33 321.677 1040.1 322.558 1040.63 323.711C1041.17 324.857 1041.44 326.192 1041.45 327.718V328.588ZM1038.73 327.771C1038.73 326.038 1038.4 324.71 1037.74 323.786C1037.09 322.862 1036.16 322.4 1034.96 322.4C1033.79 322.4 1032.87 322.862 1032.2 323.786C1031.54 324.703 1031.2 326.003 1031.19 327.685V328.588C1031.19 330.307 1031.52 331.635 1032.19 332.573C1032.86 333.511 1033.79 333.98 1034.98 333.98C1036.19 333.98 1037.11 333.522 1037.75 332.605C1038.41 331.689 1038.73 330.35 1038.73 328.588V327.771ZM1056.53 336H1053.82V322.551H1046.94V336H1044.23V320.359H1056.53V336ZM1072.12 320.359V336H1069.41V322.551H1064.62L1064.34 328.599C1064.23 330.489 1064 331.957 1063.64 333.003C1063.29 334.041 1062.78 334.8 1062.11 335.28C1061.43 335.76 1060.53 336 1059.4 336H1058.71V333.83L1059.14 333.798C1059.76 333.74 1060.24 333.522 1060.58 333.143C1060.92 332.763 1061.18 332.19 1061.35 331.424C1061.53 330.65 1061.66 329.515 1061.73 328.018L1062.03 320.359H1072.12ZM1084.98 320.359H1087.69V336H1084.98V324.86L1078.11 336H1075.39V320.359H1078.11V331.51L1084.98 320.359ZM1090.95 336V320.359H1096.31C1098.08 320.359 1099.42 320.714 1100.35 321.423C1101.27 322.132 1101.73 323.188 1101.73 324.592C1101.73 325.308 1101.54 325.952 1101.15 326.525C1100.77 327.098 1100.2 327.542 1099.46 327.857C1100.3 328.087 1100.95 328.52 1101.41 329.157C1101.88 329.787 1102.11 330.546 1102.11 331.435C1102.11 332.903 1101.64 334.031 1100.69 334.818C1099.75 335.606 1098.41 336 1096.65 336H1090.95ZM1093.67 328.942V333.83H1096.69C1097.54 333.83 1098.2 333.619 1098.68 333.196C1099.16 332.774 1099.4 332.186 1099.4 331.435C1099.4 329.809 1098.57 328.978 1096.91 328.942H1093.67ZM1093.67 326.944H1096.33C1097.18 326.944 1097.83 326.754 1098.31 326.375C1098.79 325.988 1099.03 325.444 1099.03 324.742C1099.03 323.969 1098.8 323.41 1098.36 323.066C1097.92 322.723 1097.24 322.551 1096.31 322.551H1093.67V326.944ZM1107.62 326.343H1110.82C1111.97 326.343 1112.97 326.54 1113.82 326.934C1114.67 327.327 1115.32 327.886 1115.76 328.609C1116.21 329.333 1116.43 330.171 1116.43 331.123C1116.43 332.584 1115.93 333.758 1114.94 334.646C1113.95 335.534 1112.6 335.986 1110.89 336H1104.9V320.359H1107.62V326.343ZM1120.68 336H1117.98V320.359H1120.68V336ZM1107.62 328.523V333.83H1110.81C1111.73 333.83 1112.44 333.583 1112.95 333.089C1113.46 332.588 1113.72 331.925 1113.72 331.102C1113.72 330.314 1113.47 329.691 1112.97 329.232C1112.47 328.774 1111.77 328.538 1110.89 328.523H1107.62ZM1133.6 320.359H1136.31V336H1133.6V324.86L1126.73 336H1124.01V320.359H1126.73V331.51L1133.6 320.359ZM1133.68 316.374C1133.68 317.276 1133.37 318.007 1132.74 318.565C1132.11 319.124 1131.26 319.403 1130.21 319.403C1129.16 319.403 1128.32 319.124 1127.69 318.565C1127.06 318.007 1126.74 317.276 1126.74 316.374H1128.7C1128.7 316.847 1128.83 317.215 1129.09 317.48C1129.37 317.738 1129.74 317.867 1130.21 317.867C1130.68 317.867 1131.05 317.738 1131.32 317.48C1131.58 317.215 1131.72 316.847 1131.72 316.374H1133.68ZM1069.64 365H1066.93V358.05H1059.94V365H1057.22V349.359H1059.94V355.869H1066.93V349.359H1069.64V365ZM1085.34 357.588C1085.34 359.12 1085.08 360.467 1084.55 361.627C1084.02 362.78 1083.26 363.668 1082.27 364.291C1081.29 364.907 1080.16 365.215 1078.87 365.215C1077.61 365.215 1076.48 364.907 1075.48 364.291C1074.49 363.668 1073.73 362.783 1073.18 361.638C1072.64 360.492 1072.37 359.171 1072.36 357.674V356.793C1072.36 355.268 1072.63 353.921 1073.17 352.754C1073.71 351.587 1074.48 350.695 1075.46 350.079C1076.45 349.456 1077.58 349.144 1078.85 349.144C1080.13 349.144 1081.26 349.452 1082.24 350.068C1083.23 350.677 1083.99 351.558 1084.52 352.711C1085.06 353.857 1085.33 355.192 1085.34 356.718V357.588ZM1082.62 356.771C1082.62 355.038 1082.29 353.71 1081.64 352.786C1080.98 351.862 1080.06 351.4 1078.85 351.4C1077.68 351.4 1076.76 351.862 1076.09 352.786C1075.43 353.703 1075.1 355.003 1075.08 356.685V357.588C1075.08 359.307 1075.42 360.635 1076.08 361.573C1076.75 362.511 1077.69 362.98 1078.87 362.98C1080.08 362.98 1081 362.522 1081.65 361.605C1082.3 360.689 1082.62 359.35 1082.62 357.588V356.771ZM1099.98 359.908C1099.83 361.577 1099.21 362.88 1098.14 363.818C1097.06 364.749 1095.63 365.215 1093.85 365.215C1092.6 365.215 1091.5 364.921 1090.55 364.334C1089.61 363.74 1088.88 362.898 1088.36 361.81C1087.84 360.721 1087.58 359.457 1087.55 358.018V356.557C1087.55 355.081 1087.82 353.782 1088.34 352.657C1088.86 351.533 1089.61 350.666 1090.58 350.058C1091.56 349.449 1092.7 349.144 1093.98 349.144C1095.7 349.144 1097.09 349.614 1098.15 350.552C1099.2 351.49 1099.81 352.815 1099.98 354.526H1097.28C1097.15 353.402 1096.82 352.593 1096.29 352.099C1095.76 351.597 1094.99 351.347 1093.98 351.347C1092.8 351.347 1091.89 351.78 1091.25 352.646C1090.62 353.506 1090.3 354.77 1090.28 356.438V357.824C1090.28 359.514 1090.58 360.803 1091.19 361.691C1091.79 362.579 1092.68 363.023 1093.85 363.023C1094.92 363.023 1095.72 362.783 1096.26 362.304C1096.79 361.824 1097.13 361.025 1097.28 359.908H1099.98Z" fill="#FF383D"/>
<path d="M1081.03 245.266C1129.8 245.266 1169.34 284.804 1169.34 333.579C1169.34 382.351 1129.8 421.889 1081.03 421.889V465.502" stroke="#FFD6D7" stroke-width="2.4" stroke-miterlimit="10"/>
<path d="M1073.77 467.705C1073.77 463.693 1077.02 460.443 1081.03 460.443C1085.04 460.443 1088.29 463.693 1088.29 467.705C1088.29 471.716 1085.04 474.967 1081.03 474.967C1077.02 474.967 1073.77 471.716 1073.77 467.705Z" fill="#F2AEB0"/>
<path opacity="0.15" d="M11.0007 604.367C11.0007 565.357 42.625 533.733 81.6348 533.733C120.645 533.733 152.266 565.357 152.266 604.367C152.266 643.377 120.645 675.001 81.6348 675.001C42.625 675.001 11.0007 643.377 11.0007 604.367Z" fill="#FF383D"/>
<g filter="url(#filter0_d)">
<path d="M45.0723 606.589C45.0723 608.121 44.8073 609.467 44.2773 610.628C43.7474 611.781 42.9883 612.669 42 613.292C41.0189 613.908 39.8874 614.216 38.6055 614.216C37.3379 614.216 36.2064 613.908 35.2109 613.292C34.2227 612.669 33.4564 611.784 32.9121 610.638C32.375 609.493 32.1029 608.171 32.0957 606.674V605.794C32.0957 604.268 32.3643 602.922 32.9014 601.755C33.4456 600.587 34.2083 599.696 35.1895 599.08C36.1777 598.457 37.3092 598.145 38.584 598.145C39.8587 598.145 40.9867 598.453 41.9678 599.069C42.9561 599.678 43.7188 600.559 44.2559 601.712C44.793 602.857 45.0651 604.193 45.0723 605.718V606.589ZM42.3545 605.772C42.3545 604.039 42.0251 602.711 41.3662 601.787C40.7145 600.863 39.7871 600.401 38.584 600.401C37.4095 600.401 36.4893 600.863 35.8232 601.787C35.1644 602.703 34.8278 604.003 34.8135 605.686V606.589C34.8135 608.307 35.1465 609.636 35.8125 610.574C36.4857 611.512 37.4167 611.981 38.6055 611.981C39.8086 611.981 40.7324 611.523 41.377 610.606C42.0286 609.689 42.3545 608.35 42.3545 606.589V605.772ZM61.7979 617.846H59.2197V614.001H48.918V617.846H46.2969L46.2109 611.831H47.4678C48.0908 611.229 48.5885 610.355 48.9609 609.21C49.3333 608.057 49.5732 606.753 49.6807 605.299L50.0889 598.36H59.9502V611.831H61.9375L61.7979 617.846ZM50.54 611.831H57.2432V600.551H52.6777L52.4199 604.956C52.2266 607.899 51.5999 610.191 50.54 611.831ZM66.7715 604.343H69.9727C71.1185 604.343 72.1175 604.54 72.9697 604.934C73.8219 605.328 74.4701 605.887 74.9141 606.61C75.3581 607.333 75.5801 608.171 75.5801 609.124C75.5801 610.585 75.0824 611.759 74.0869 612.647C73.0986 613.535 71.7487 613.986 70.0371 614.001H64.0537V598.36H66.7715V604.343ZM79.834 614.001H77.127V598.36H79.834V614.001ZM66.7715 606.524V611.831H69.9619C70.8786 611.831 71.5911 611.584 72.0996 611.09C72.6152 610.588 72.873 609.926 72.873 609.102C72.873 608.314 72.6224 607.691 72.1211 607.233C71.6198 606.775 70.9251 606.538 70.0371 606.524H66.7715ZM85.9355 598.36V611.831H90.7051V598.36H93.4121V611.831H98.1494V598.36H100.856V614.001H83.207V598.36H85.9355ZM108.72 607.298H106.872V614.001H104.165V598.36H106.872V604.934H108.365L112.963 598.36H116.293L110.922 605.847L116.766 614.001H113.5L108.72 607.298ZM127.024 610.359H120.966L119.698 614.001H116.873L122.781 598.36H125.22L131.139 614.001H128.303L127.024 610.359ZM121.729 608.168H126.262L123.995 601.679L121.729 608.168Z" fill="#FF383D"/>
</g>
<path d="M81.3325 516.643C130.105 516.643 169.643 556.181 169.643 604.953C169.643 653.728 130.105 693.266 81.3325 693.266V736.877" stroke="#FFD6D7" stroke-width="2.4" stroke-miterlimit="10"/>
<path d="M74.0701 739.081C74.0701 735.069 77.3207 731.818 81.3323 731.818C85.344 731.818 88.5946 735.069 88.5946 739.081C88.5946 743.09 85.344 746.343 81.3323 746.343C77.3207 746.343 74.0701 743.09 74.0701 739.081Z" fill="#F2AEB0"/>
<path d="M186.74 616.834H365.033C374.666 616.834 383.365 611.075 387.127 602.208L443.54 469.234C447.302 460.366 456.002 454.607 465.634 454.607H672.809" stroke="#FFB2B1" stroke-width="5" stroke-linejoin="round"/>
<path d="M201.987 617.241C201.987 622.277 197.904 626.36 192.868 626.36C187.832 626.36 183.75 622.277 183.75 617.241C183.75 612.205 187.832 608.123 192.868 608.123C197.904 608.123 201.987 612.205 201.987 617.241Z" fill="#FF383D"/>
<path opacity="0.15" d="M159.268 362.367C159.268 323.357 127.644 291.733 88.6338 291.733C49.624 291.733 17.9998 323.357 17.9998 362.367C17.9998 401.376 49.624 433.001 88.6338 433.001C127.644 433.001 159.268 401.376 159.268 362.367Z" fill="#FF383D"/>
<path d="M67.1865 342.551H59.9785V346.343H63.1797C64.3255 346.343 65.3245 346.54 66.1768 346.934C67.029 347.328 67.6771 347.887 68.1211 348.61C68.5651 349.333 68.7871 350.171 68.7871 351.124C68.7871 352.585 68.2894 353.759 67.2939 354.647C66.3057 355.535 64.9557 355.986 63.2441 356.001H57.2607V340.36H67.1865V342.551ZM59.9785 348.524V353.831H63.1689C64.0856 353.831 64.7982 353.584 65.3066 353.09C65.8223 352.588 66.0801 351.926 66.0801 351.102C66.0801 350.314 65.8294 349.691 65.3281 349.233C64.8268 348.775 64.1322 348.538 63.2441 348.524H59.9785ZM83.6221 348.589C83.6221 350.121 83.3571 351.467 82.8271 352.628C82.2972 353.781 81.5381 354.669 80.5498 355.292C79.5687 355.908 78.4372 356.216 77.1553 356.216C75.8877 356.216 74.7562 355.908 73.7607 355.292C72.7725 354.669 72.0062 353.784 71.4619 352.638C70.9248 351.493 70.6527 350.171 70.6455 348.674V347.794C70.6455 346.268 70.9141 344.922 71.4512 343.755C71.9954 342.587 72.7581 341.696 73.7393 341.08C74.7275 340.457 75.859 340.145 77.1338 340.145C78.4085 340.145 79.5365 340.453 80.5176 341.069C81.5059 341.678 82.2686 342.559 82.8057 343.712C83.3428 344.857 83.6149 346.193 83.6221 347.718V348.589ZM80.9043 347.772C80.9043 346.039 80.5749 344.711 79.916 343.787C79.2643 342.863 78.3369 342.401 77.1338 342.401C75.9593 342.401 75.0391 342.863 74.373 343.787C73.7142 344.703 73.3776 346.003 73.3633 347.686V348.589C73.3633 350.307 73.6963 351.636 74.3623 352.574C75.0355 353.512 75.9665 353.981 77.1553 353.981C78.3584 353.981 79.2822 353.523 79.9268 352.606C80.5785 351.689 80.9043 350.35 80.9043 348.589V347.772ZM98.2852 340.36V356.001H95.5781V342.551H90.7871L90.5078 348.599C90.4004 350.49 90.1676 351.958 89.8096 353.004C89.4587 354.042 88.9466 354.801 88.2734 355.281C87.6003 355.761 86.6979 356.001 85.5664 356.001H84.8789V353.831L85.3086 353.799C85.9316 353.741 86.4115 353.523 86.748 353.143C87.0918 352.764 87.3496 352.191 87.5215 351.424C87.7005 350.651 87.8258 349.516 87.8975 348.019L88.1982 340.36H98.2852ZM104.236 346.343H107.438C108.583 346.343 109.582 346.54 110.435 346.934C111.287 347.328 111.935 347.887 112.379 348.61C112.823 349.333 113.045 350.171 113.045 351.124C113.045 352.585 112.547 353.759 111.552 354.647C110.563 355.535 109.214 355.986 107.502 356.001H101.519V340.36H104.236V346.343ZM104.236 348.524V353.831H107.427C108.343 353.831 109.056 353.584 109.564 353.09C110.08 352.588 110.338 351.926 110.338 351.102C110.338 350.314 110.087 349.691 109.586 349.233C109.085 348.775 108.39 348.538 107.502 348.524H104.236ZM45.7881 385.001V369.36H51.1484C52.9173 369.36 54.2637 369.715 55.1875 370.424C56.1113 371.133 56.5732 372.189 56.5732 373.592C56.5732 374.309 56.3799 374.953 55.9932 375.526C55.6064 376.099 55.0407 376.543 54.2959 376.858C55.141 377.087 55.7926 377.521 56.251 378.158C56.7165 378.788 56.9492 379.547 56.9492 380.435C56.9492 381.903 56.4766 383.031 55.5312 383.819C54.5931 384.607 53.2467 385.001 51.4922 385.001H45.7881ZM48.5059 377.943V382.831H51.5244C52.3766 382.831 53.0426 382.619 53.5225 382.197C54.0023 381.774 54.2422 381.187 54.2422 380.435C54.2422 378.81 53.4115 377.979 51.75 377.943H48.5059ZM48.5059 375.945H51.1699C52.015 375.945 52.6738 375.755 53.1465 375.376C53.6263 374.989 53.8662 374.445 53.8662 373.743C53.8662 372.969 53.6442 372.411 53.2002 372.067C52.7633 371.723 52.0794 371.551 51.1484 371.551H48.5059V375.945ZM75.1465 371.551H67.9277V385.001H65.2207V369.36H75.1465V371.551ZM89.165 377.589C89.165 379.121 88.9001 380.467 88.3701 381.628C87.8402 382.781 87.0811 383.669 86.0928 384.292C85.1117 384.908 83.9801 385.216 82.6982 385.216C81.4307 385.216 80.2992 384.908 79.3037 384.292C78.3154 383.669 77.5492 382.784 77.0049 381.638C76.4678 380.493 76.1956 379.171 76.1885 377.674V376.794C76.1885 375.268 76.457 373.922 76.9941 372.755C77.5384 371.587 78.3011 370.696 79.2822 370.08C80.2705 369.457 81.402 369.145 82.6768 369.145C83.9515 369.145 85.0794 369.453 86.0605 370.069C87.0488 370.678 87.8115 371.559 88.3486 372.712C88.8857 373.857 89.1579 375.193 89.165 376.718V377.589ZM86.4473 376.772C86.4473 375.039 86.1178 373.711 85.459 372.787C84.8073 371.863 83.8799 371.401 82.6768 371.401C81.5023 371.401 80.582 371.863 79.916 372.787C79.2572 373.703 78.9206 375.003 78.9062 376.686V377.589C78.9062 379.307 79.2393 380.636 79.9053 381.574C80.5785 382.512 81.5094 382.981 82.6982 382.981C83.9014 382.981 84.8252 382.523 85.4697 381.606C86.1214 380.689 86.4473 379.35 86.4473 377.589V376.772ZM94.5898 379.189V385.001H91.8721V369.36H97.8555C99.6029 369.36 100.989 369.815 102.013 370.724C103.044 371.634 103.56 372.837 103.56 374.334C103.56 375.866 103.055 377.059 102.045 377.911C101.042 378.763 99.6351 379.189 97.8232 379.189H94.5898ZM94.5898 377.008H97.8555C98.8223 377.008 99.5599 376.783 100.068 376.332C100.577 375.873 100.831 375.215 100.831 374.355C100.831 373.51 100.573 372.837 100.058 372.336C99.542 371.827 98.833 371.566 97.9307 371.551H94.5898V377.008ZM116.676 369.36V385.001H113.969V371.551H109.178L108.898 377.599C108.791 379.49 108.558 380.958 108.2 382.004C107.849 383.042 107.337 383.801 106.664 384.281C105.991 384.761 105.089 385.001 103.957 385.001H103.27V382.831L103.699 382.799C104.322 382.741 104.802 382.523 105.139 382.143C105.482 381.764 105.74 381.191 105.912 380.424C106.091 379.651 106.216 378.516 106.288 377.019L106.589 369.36H116.676ZM129.094 378.018H122.67V382.831H130.179V385.001H119.952V369.36H130.104V371.551H122.67V375.87H129.094V378.018Z" fill="#FF383D"/>
<path d="M89.9726 274.026C41.2003 274.026 1.6626 313.564 1.6626 362.339C1.6626 411.111 41.2003 450.649 89.9726 450.649V494.263" stroke="#FFD6D7" stroke-width="2.4" stroke-miterlimit="10"/>
<path d="M97.4327 496.545C97.4327 492.534 94.1821 489.283 90.1705 489.283C86.1615 489.283 82.9082 492.534 82.9082 496.545C82.9082 500.557 86.1615 503.808 90.1705 503.808C94.1821 503.808 97.4327 500.557 97.4327 496.545Z" fill="#F2AEB0"/>
<path d="M190.511 377.071H393.822C401.243 377.071 408.246 373.638 412.792 367.773L455.528 312.63C460.074 306.764 467.077 303.331 474.498 303.331H631.721" stroke="#FFB2B1" stroke-width="5" stroke-linejoin="round"/>
<path d="M200.761 377.587C200.761 382.623 196.678 386.705 191.642 386.705C186.606 386.705 182.524 382.623 182.524 377.587C182.524 372.551 186.606 368.468 191.642 368.468C196.678 368.468 200.761 372.551 200.761 377.587Z" fill="#FF383D"/>
<path opacity="0.13" d="M1160 574.367C1160 535.357 1128.38 503.733 1089.37 503.733C1050.36 503.733 1018.74 535.357 1018.74 574.367C1018.74 613.376 1050.36 645.001 1089.37 645.001C1128.38 645.001 1160 613.376 1160 574.367Z" fill="#FF383D"/>
<path d="M1067 578.588C1067 580.12 1066.73 581.467 1066.2 582.627C1065.67 583.78 1064.91 584.668 1063.92 585.291C1062.94 585.907 1061.81 586.215 1060.53 586.215C1059.26 586.215 1058.13 585.907 1057.13 585.291C1056.15 584.668 1055.38 583.783 1054.83 582.638C1054.3 581.492 1054.03 580.171 1054.02 578.674V577.793C1054.02 576.268 1054.29 574.921 1054.82 573.754C1055.37 572.587 1056.13 571.695 1057.11 571.079C1058.1 570.456 1059.23 570.144 1060.51 570.144C1061.78 570.144 1062.91 570.452 1063.89 571.068C1064.88 571.677 1065.64 572.558 1066.18 573.711C1066.72 574.857 1066.99 576.192 1067 577.718V578.588ZM1064.28 577.771C1064.28 576.038 1063.95 574.71 1063.29 573.786C1062.64 572.862 1061.71 572.4 1060.51 572.4C1059.33 572.4 1058.41 572.862 1057.75 573.786C1057.09 574.703 1056.75 576.003 1056.74 577.685V578.588C1056.74 580.307 1057.07 581.635 1057.74 582.573C1058.41 583.511 1059.34 583.98 1060.53 583.98C1061.73 583.98 1062.66 583.522 1063.3 582.605C1063.95 581.689 1064.28 580.35 1064.28 578.588V577.771ZM1077.52 574.624C1077.52 573.922 1077.26 573.364 1076.73 572.948C1076.2 572.533 1075.48 572.325 1074.57 572.325C1073.79 572.325 1073.14 572.533 1072.61 572.948C1072.09 573.356 1071.83 573.886 1071.83 574.538H1069.12C1069.12 573.686 1069.36 572.927 1069.83 572.261C1070.3 571.595 1070.96 571.079 1071.8 570.714C1072.63 570.341 1073.56 570.155 1074.57 570.155C1076.36 570.155 1077.75 570.546 1078.74 571.326C1079.73 572.107 1080.23 573.199 1080.23 574.602C1080.23 575.311 1080.01 575.963 1079.58 576.558C1079.16 577.152 1078.55 577.621 1077.78 577.965C1078.65 578.266 1079.32 578.724 1079.78 579.34C1080.24 579.949 1080.48 580.708 1080.48 581.617C1080.48 583.021 1079.94 584.138 1078.87 584.969C1077.79 585.792 1076.36 586.204 1074.57 586.204C1073.47 586.204 1072.47 586.007 1071.57 585.613C1070.68 585.219 1070.01 584.682 1069.56 584.002C1069.12 583.322 1068.9 582.541 1068.9 581.66H1071.6C1071.6 582.333 1071.88 582.903 1072.44 583.368C1073 583.826 1073.71 584.056 1074.57 584.056C1075.53 584.056 1076.3 583.83 1076.88 583.379C1077.47 582.928 1077.76 582.34 1077.76 581.617C1077.76 580.736 1077.5 580.099 1076.99 579.705C1076.48 579.304 1075.73 579.103 1074.74 579.103H1072.9V576.955H1074.64C1076.56 576.955 1077.52 576.178 1077.52 574.624ZM1095.42 586H1092.71V579.05H1085.72V586H1083V570.359H1085.72V576.869H1092.71V570.359H1095.42V586ZM1111.12 578.588C1111.12 580.12 1110.86 581.467 1110.33 582.627C1109.8 583.78 1109.04 584.668 1108.05 585.291C1107.07 585.907 1105.94 586.215 1104.66 586.215C1103.39 586.215 1102.26 585.907 1101.26 585.291C1100.27 584.668 1099.51 583.783 1098.96 582.638C1098.43 581.492 1098.15 580.171 1098.15 578.674V577.793C1098.15 576.268 1098.42 574.921 1098.95 573.754C1099.5 572.587 1100.26 571.695 1101.24 571.079C1102.23 570.456 1103.36 570.144 1104.64 570.144C1105.91 570.144 1107.04 570.452 1108.02 571.068C1109.01 571.677 1109.77 572.558 1110.31 573.711C1110.84 574.857 1111.12 576.192 1111.12 577.718V578.588ZM1108.41 577.771C1108.41 576.038 1108.08 574.71 1107.42 573.786C1106.77 572.862 1105.84 572.4 1104.64 572.4C1103.46 572.4 1102.54 572.862 1101.88 573.786C1101.22 574.703 1100.88 576.003 1100.87 577.685V578.588C1100.87 580.307 1101.2 581.635 1101.86 582.573C1102.54 583.511 1103.47 583.98 1104.66 583.98C1105.86 583.98 1106.78 583.522 1107.43 582.605C1108.08 581.689 1108.41 580.35 1108.41 578.588V577.771ZM1123.71 572.551H1116.51V576.343H1119.71C1120.85 576.343 1121.85 576.54 1122.7 576.934C1123.56 577.327 1124.2 577.886 1124.65 578.609C1125.09 579.333 1125.31 580.171 1125.31 581.123C1125.31 582.584 1124.82 583.758 1123.82 584.646C1122.83 585.534 1121.48 585.986 1119.77 586H1113.79V570.359H1123.71V572.551ZM1116.51 578.523V583.83H1119.7C1120.61 583.83 1121.33 583.583 1121.83 583.089C1122.35 582.588 1122.61 581.925 1122.61 581.102C1122.61 580.314 1122.36 579.691 1121.86 579.232C1121.35 578.774 1120.66 578.538 1119.77 578.523H1116.51Z" fill="#FA5652"/>
<path d="M1089.87 487.802C1041.1 487.802 1001.56 527.34 1001.56 576.112C1001.56 624.887 1041.1 664.425 1089.87 664.425V708.036" stroke="#FFD6D7" stroke-width="2.4" stroke-miterlimit="10"/>
<path d="M1097.13 710.239C1097.13 706.228 1093.88 702.977 1089.86 702.977C1085.85 702.977 1082.6 706.228 1082.6 710.239C1082.6 714.248 1085.85 717.502 1089.86 717.502C1093.88 717.502 1097.13 714.248 1097.13 710.239Z" fill="#F2AEB0"/>
<path d="M725.738 628.401H816.846C824.124 628.401 831.009 625.099 835.565 619.422L861.096 587.606C865.651 581.93 872.536 578.627 879.814 578.627H973.995" stroke="#FFA6A6" stroke-width="5" stroke-linejoin="round"/>
<path d="M979.943 577.913C979.943 582.949 975.861 587.032 970.825 587.032C965.789 587.032 961.706 582.949 961.706 577.913C961.706 572.877 965.789 568.795 970.825 568.795C975.861 568.795 979.943 572.877 979.943 577.913Z" fill="#FF383D"/>
<path opacity="0.15" d="M1160 88.3667C1160 49.3569 1128.38 17.7326 1089.37 17.7326C1050.36 17.7326 1018.74 49.3569 1018.74 88.3667C1018.74 127.376 1050.36 159.001 1089.37 159.001C1128.38 159.001 1160 127.376 1160 88.3667Z" fill="#FF383D"/>
<path d="M1042 77.5515H1034.78V91.0007H1032.08V75.36H1042V77.5515ZM1056.02 83.5886C1056.02 85.1211 1055.76 86.4675 1055.23 87.6276C1054.7 88.7806 1053.94 89.6686 1052.95 90.2917C1051.97 90.9076 1050.84 91.2155 1049.55 91.2155C1048.29 91.2155 1047.15 90.9076 1046.16 90.2917C1045.17 89.6686 1044.4 88.7842 1043.86 87.6384C1043.32 86.4925 1043.05 85.1712 1043.04 83.6745V82.7936C1043.04 81.2682 1043.31 79.9219 1043.85 78.7546C1044.39 77.5873 1045.16 76.6957 1046.14 76.0798C1047.13 75.4567 1048.26 75.1452 1049.53 75.1452C1050.81 75.1452 1051.93 75.4531 1052.92 76.069C1053.9 76.6778 1054.67 77.5586 1055.2 78.7116C1055.74 79.8574 1056.01 81.1931 1056.02 82.7184V83.5886ZM1053.3 82.7722C1053.3 81.0391 1052.97 79.7106 1052.31 78.7868C1051.66 77.863 1050.74 77.4011 1049.53 77.4011C1048.36 77.4011 1047.44 77.863 1046.77 78.7868C1046.11 79.7035 1045.78 81.0033 1045.76 82.6862V83.5886C1045.76 85.3073 1046.09 86.6358 1046.76 87.5739C1047.43 88.5121 1048.36 88.9811 1049.55 88.9811C1050.76 88.9811 1051.68 88.5228 1052.33 87.6061C1052.98 86.6895 1053.3 85.3503 1053.3 83.5886V82.7722ZM1070.68 75.36V91.0007H1067.98V77.5515H1063.19L1062.91 83.5993C1062.8 85.4899 1062.57 86.958 1062.21 88.0036C1061.86 89.042 1061.35 89.8011 1060.67 90.2809C1060 90.7608 1059.1 91.0007 1057.96 91.0007H1057.28V88.8307L1057.71 88.7985C1058.33 88.7412 1058.81 88.5228 1059.15 88.1432C1059.49 87.7637 1059.75 87.1908 1059.92 86.4245C1060.1 85.6511 1060.22 84.516 1060.3 83.0192L1060.6 75.36H1070.68ZM1086.44 83.5886C1086.44 85.1211 1086.18 86.4675 1085.65 87.6276C1085.12 88.7806 1084.36 89.6686 1083.37 90.2917C1082.39 90.9076 1081.26 91.2155 1079.98 91.2155C1078.71 91.2155 1077.58 90.9076 1076.58 90.2917C1075.59 89.6686 1074.83 88.7842 1074.28 87.6384C1073.75 86.4925 1073.47 85.1712 1073.47 83.6745V82.7936C1073.47 81.2682 1073.73 79.9219 1074.27 78.7546C1074.82 77.5873 1075.58 76.6957 1076.56 76.0798C1077.55 75.4567 1078.68 75.1452 1079.95 75.1452C1081.23 75.1452 1082.36 75.4531 1083.34 76.069C1084.33 76.6778 1085.09 77.5586 1085.63 78.7116C1086.16 79.8574 1086.44 81.1931 1086.44 82.7184V83.5886ZM1083.72 82.7722C1083.72 81.0391 1083.4 79.7106 1082.74 78.7868C1082.08 77.863 1081.16 77.4011 1079.95 77.4011C1078.78 77.4011 1077.86 77.863 1077.19 78.7868C1076.53 79.7035 1076.2 81.0033 1076.18 82.6862V83.5886C1076.18 85.3073 1076.52 86.6358 1077.18 87.5739C1077.86 88.5121 1078.79 88.9811 1079.98 88.9811C1081.18 88.9811 1082.1 88.5228 1082.75 87.6061C1083.4 86.6895 1083.72 85.3503 1083.72 83.5886V82.7722ZM1089.15 91.0007V75.36H1094.51C1096.28 75.36 1097.62 75.7145 1098.55 76.4235C1099.47 77.1325 1099.93 78.1888 1099.93 79.5925C1099.93 80.3086 1099.74 80.9531 1099.35 81.5261C1098.97 82.099 1098.4 82.543 1097.66 82.8581C1098.5 83.0873 1099.15 83.5205 1099.61 84.1579C1100.08 84.7881 1100.31 85.5472 1100.31 86.4352C1100.31 87.9033 1099.84 89.0313 1098.89 89.819C1097.95 90.6068 1096.61 91.0007 1094.85 91.0007H1089.15ZM1091.87 83.9431V88.8307H1094.89C1095.74 88.8307 1096.4 88.6195 1096.88 88.197C1097.36 87.7744 1097.6 87.1872 1097.6 86.4352C1097.6 84.8096 1096.77 83.9789 1095.11 83.9431H1091.87ZM1091.87 81.945H1094.53C1095.38 81.945 1096.04 81.7552 1096.51 81.3757C1096.99 80.989 1097.23 80.4447 1097.23 79.7429C1097.23 78.9694 1097.01 78.4108 1096.56 78.0671C1096.12 77.7233 1095.44 77.5515 1094.51 77.5515H1091.87V81.945ZM1115.45 91.0007H1112.74V84.0505H1105.75V91.0007H1103.03V75.36H1105.75V81.8698H1112.74V75.36H1115.45V91.0007ZM1127.62 87.3591H1121.56L1120.29 91.0007H1117.47L1123.37 75.36H1125.81L1131.73 91.0007H1128.9L1127.62 87.3591ZM1122.32 85.1677H1126.85L1124.59 78.6794L1122.32 85.1677ZM1141.23 91.0007V85.1569H1138.2L1135.18 91.0007H1132.27L1135.76 84.3513C1133.94 83.4919 1133.03 82.0847 1133.03 80.1296C1133.03 78.6328 1133.52 77.4691 1134.5 76.6384C1135.49 75.8005 1136.87 75.3744 1138.63 75.36H1143.95V91.0007H1141.23ZM1135.74 80.2477C1135.74 81.1286 1135.99 81.8161 1136.48 82.3102C1136.97 82.8044 1137.71 83.0515 1138.7 83.0515H1141.23V77.5515H1138.7C1137.7 77.5515 1136.96 77.7914 1136.47 78.2712C1135.98 78.751 1135.74 79.4099 1135.74 80.2477ZM1070.43 103.551H1063.22V107.343H1066.42C1067.56 107.343 1068.56 107.54 1069.42 107.934C1070.27 108.328 1070.92 108.887 1071.36 109.61C1071.8 110.333 1072.03 111.171 1072.03 112.124C1072.03 113.585 1071.53 114.759 1070.53 115.647C1069.54 116.535 1068.19 116.986 1066.48 117.001H1060.5V101.36H1070.43V103.551ZM1063.22 109.524V114.831H1066.41C1067.32 114.831 1068.04 114.584 1068.55 114.09C1069.06 113.588 1069.32 112.926 1069.32 112.102C1069.32 111.314 1069.07 110.691 1068.57 110.233C1068.07 109.775 1067.37 109.538 1066.48 109.524H1063.22ZM1086.86 109.589C1086.86 111.121 1086.6 112.467 1086.07 113.628C1085.54 114.781 1084.78 115.669 1083.79 116.292C1082.81 116.908 1081.68 117.216 1080.39 117.216C1079.13 117.216 1078 116.908 1077 116.292C1076.01 115.669 1075.25 114.784 1074.7 113.638C1074.16 112.493 1073.89 111.171 1073.88 109.674V108.794C1073.88 107.268 1074.15 105.922 1074.69 104.755C1075.23 103.587 1076 102.696 1076.98 102.08C1077.97 101.457 1079.1 101.145 1080.37 101.145C1081.65 101.145 1082.78 101.453 1083.76 102.069C1084.75 102.678 1085.51 103.559 1086.04 104.712C1086.58 105.857 1086.85 107.193 1086.86 108.718V109.589ZM1084.14 108.772C1084.14 107.039 1083.81 105.711 1083.16 104.787C1082.5 103.863 1081.58 103.401 1080.37 103.401C1079.2 103.401 1078.28 103.863 1077.61 104.787C1076.95 105.703 1076.62 107.003 1076.6 108.686V109.589C1076.6 111.307 1076.94 112.636 1077.6 113.574C1078.27 114.512 1079.21 114.981 1080.39 114.981C1081.6 114.981 1082.52 114.523 1083.17 113.606C1083.82 112.689 1084.14 111.35 1084.14 109.589V108.772ZM1101.52 101.36V117.001H1098.82V103.551H1094.03L1093.75 109.599C1093.64 111.49 1093.41 112.958 1093.05 114.004C1092.7 115.042 1092.19 115.801 1091.51 116.281C1090.84 116.761 1089.94 117.001 1088.81 117.001H1088.12V114.831L1088.55 114.799C1089.17 114.741 1089.65 114.523 1089.99 114.143C1090.33 113.764 1090.59 113.191 1090.76 112.424C1090.94 111.651 1091.07 110.516 1091.14 109.019L1091.44 101.36H1101.52ZM1107.48 107.343H1110.68C1111.82 107.343 1112.82 107.54 1113.67 107.934C1114.53 108.328 1115.17 108.887 1115.62 109.61C1116.06 110.333 1116.28 111.171 1116.28 112.124C1116.28 113.585 1115.79 114.759 1114.79 115.647C1113.8 116.535 1112.45 116.986 1110.74 117.001H1104.76V101.36H1107.48V107.343ZM1107.48 109.524V114.831H1110.67C1111.58 114.831 1112.3 114.584 1112.8 114.09C1113.32 113.588 1113.58 112.926 1113.58 112.102C1113.58 111.314 1113.33 110.691 1112.83 110.233C1112.32 109.775 1111.63 109.538 1110.74 109.524H1107.48Z" fill="#FF383D"/>
<path d="M1089.87 1.65043C1041.1 1.65043 1001.56 41.1881 1001.56 89.9604C1001.56 138.733 1041.1 178.273 1089.87 178.273V221.884" stroke="#FFD6D7" stroke-width="2.4" stroke-miterlimit="10"/>
<path d="M1097.13 224.088C1097.13 220.076 1093.88 216.825 1089.87 216.825C1085.86 216.825 1082.61 220.076 1082.61 224.088C1082.61 228.099 1085.86 231.35 1089.87 231.35C1093.88 231.35 1097.13 228.099 1097.13 224.088Z" fill="#F2AEB0"/>
<path d="M975.839 96.86H849.559C843.442 96.86 837.555 99.196 833.102 103.391L804.567 130.272C800.114 134.466 794.228 136.802 788.11 136.802H674.12" stroke="#FFB2B1" stroke-width="5" stroke-linejoin="round"/>
<path d="M979.941 96.1463C979.941 101.182 975.859 105.265 970.822 105.265C965.786 105.265 961.704 101.182 961.704 96.1463C961.704 91.1102 965.786 87.0279 970.822 87.0279C975.859 87.0279 979.941 91.1102 979.941 96.1463Z" fill="#FF383D"/>
<path d="M70.3818 122.254H68.6309V129H65.9238V122.254H64.0977L60.2627 129H56.8789L61.917 120.675L57.2119 113.359H60.499L64.2373 119.891H65.9238V113.359H68.6309V119.891H70.2422L73.9482 113.359H77.2246L72.5625 120.653L77.5576 129H74.1846L70.3818 122.254ZM87.9775 125.358H81.9189L80.6514 129H77.8262L83.7344 113.359H86.1729L92.0918 129H89.2559L87.9775 125.358ZM82.6816 123.167H87.2148L84.9482 116.679L82.6816 123.167ZM96.5928 123.188V129H93.875V113.359H99.8584C101.606 113.359 102.992 113.814 104.016 114.724C105.047 115.633 105.562 116.836 105.562 118.333C105.562 119.866 105.058 121.058 104.048 121.91C103.045 122.762 101.638 123.188 99.8262 123.188H96.5928ZM96.5928 121.008H99.8584C100.825 121.008 101.563 120.782 102.071 120.331C102.58 119.873 102.834 119.214 102.834 118.354C102.834 117.509 102.576 116.836 102.061 116.335C101.545 115.826 100.836 115.565 99.9336 115.551H96.5928V121.008Z" fill="#FF383D"/>
<defs>
<filter id="filter0_d" x="32.0957" y="598.145" width="99.043" height="19.7012" filterUnits="userSpaceOnUse" color-interpolation-filters="sRGB">
<feFlood flood-opacity="0" result="BackgroundImageFix"/>
<feColorMatrix in="SourceAlpha" type="matrix" values="0 0 0 0 0 0 0 0 0 0 0 0 0 0 0 0 0 0 127 0"/>
<feOffset/>
<feColorMatrix type="matrix" values="0 0 0 0 0 0 0 0 0 0 0 0 0 0 0 0 0 0 0.1 0"/>
<feBlend mode="normal" in2="BackgroundImageFix" result="effect1_dropShadow"/>
<feBlend mode="normal" in="SourceGraphic" in2="effect1_dropShadow" result="shape"/>
</filter>
</defs>
</svg>
