<svg width="189" height="193" viewBox="0 0 189 193" fill="none" xmlns="http://www.w3.org/2000/svg">
<path opacity="0.93" d="M182.81 91.743C179.781 91.6537 177.166 93.9993 176.424 97.224C171.725 97.5923 166.363 97.7169 160.479 97.3429C157.19 97.1295 154.078 96.7845 151.16 96.3571C151.175 95.7929 151.186 95.2229 151.186 94.6528C151.186 91.8793 150.992 89.1538 150.617 86.4875C152.099 85.3416 153.958 84.1361 156.203 83.1022C160.103 81.2975 163.758 80.6556 166.567 80.4718C167.95 83.6373 171.114 85.4774 174.158 84.6765C177.578 83.7737 179.531 79.8722 178.523 75.9586C177.515 72.0455 173.929 69.5984 170.509 70.5013C167.392 71.3265 165.491 74.6405 165.94 78.1854C163.476 79.5991 159.816 81.1311 155.284 81.2442C153.039 81.3033 151.081 81.0001 149.494 80.6081C148.486 76.4694 147.035 72.5019 145.192 68.7611C147.145 66.9797 149.452 65.091 152.157 63.2679C156.073 60.6195 159.847 58.7251 163.163 57.3658C165.324 59.9185 168.775 60.768 171.433 59.2116C174.487 57.4307 175.354 53.1368 173.359 49.6336C171.36 46.1294 167.251 44.74 164.197 46.5272C161.534 48.0773 160.542 51.5223 161.638 54.6931C158.793 56.9262 155.289 59.2835 151.086 61.3861C148.225 62.823 145.489 63.9156 143.015 64.7466C140.994 61.3201 138.619 58.1255 135.961 55.2098C136.984 51.4568 138.713 47.0735 141.657 42.6797C144.419 38.5701 147.494 35.5714 150.105 33.4625C152.976 35.2624 156.589 34.9829 158.647 32.6135C160.986 29.9298 160.448 25.5888 157.446 22.9161C154.449 20.2382 150.121 20.244 147.792 22.9278C145.724 25.2977 145.897 28.9498 148.032 31.6161C146.346 34.4309 143.798 37.9224 140.049 41.248C135.919 44.9186 131.763 47.1158 128.605 48.4222C125.012 45.6365 121.091 43.2729 116.899 41.4028C117.51 39.6985 118.314 37.9821 119.368 36.2958C120.214 34.9597 121.123 33.7832 122.047 32.7567C125.242 34.069 128.808 33.1239 130.416 30.3746C132.228 27.3047 130.907 23.1359 127.466 21.0692C124.031 19.0025 119.781 19.8161 117.974 22.8924C116.392 25.5946 117.228 29.1453 119.781 31.3662C119.248 32.7916 118.601 34.2708 117.833 35.7786C116.956 37.513 115.996 39.1105 114.988 40.5892C114.565 40.417 114.137 40.2506 113.714 40.0968C108.718 38.2082 103.402 37.0147 97.8629 36.6101C96.9545 34.1281 96.1609 31.3773 95.6074 28.356C94.4745 22.1908 94.6833 16.8249 95.2054 12.7951C98.4634 12.1637 100.907 9.57457 100.907 6.47243C100.907 2.89799 97.6646 -0.000239753 93.6652 -0.000239753C89.6711 -0.000239753 86.4288 2.89799 86.4288 6.47243C86.4288 9.62847 88.961 12.253 92.2973 12.8262C93.023 16.7969 93.4981 22.3567 92.3756 28.8008C91.8796 31.6378 91.1486 34.2233 90.2924 36.5631C84.9826 36.8663 79.8712 37.9039 75.0417 39.5759C74.3682 38.4966 73.7677 37.3634 73.23 36.0268C72.1597 33.3806 71.695 30.8987 71.5122 28.8336C74.6344 27.1885 76.2477 23.7371 75.1409 20.6836C73.9348 17.3252 69.9042 15.7282 66.1502 17.116C62.3963 18.5038 60.334 22.3509 61.5453 25.7087C62.5895 28.6069 65.7325 30.1881 68.9905 29.6767C69.9407 31.6531 70.8492 33.9327 71.5697 36.5213C71.9456 37.8928 72.2327 39.2331 72.452 40.5443C68.0715 42.3009 63.9574 44.5911 60.1825 47.3318C58.1933 45.8785 56.1623 44.1906 54.1574 42.2121C49.5368 37.6588 46.4511 32.9886 44.4254 29.2472C46.6704 26.7352 47.062 23.1396 45.1824 20.6619C43.0261 17.8276 38.7136 17.5281 35.5444 19.9936C32.3752 22.4586 31.5502 26.7553 33.7065 29.589C35.607 32.0942 39.1991 32.6151 42.1908 31.0017C45.1198 33.6522 48.9155 37.8347 51.8602 43.8456C53.202 46.5949 54.1418 49.2686 54.7944 51.7621C54.1888 52.3253 53.5831 52.9064 52.9984 53.4992C50.0432 56.4904 47.4118 59.8023 45.1511 63.3867C43.8198 62.9979 42.4414 62.5293 41.0317 61.954C36.4319 60.0828 32.8712 57.6981 30.292 55.6203C31.3884 52.3882 30.3233 48.9004 27.5927 47.3889C24.4966 45.6709 20.4294 47.1533 18.5081 50.7002C16.5867 54.2478 17.5369 58.5164 20.6382 60.2339C23.3636 61.7453 26.8304 60.7796 28.9397 58.1144C32.0724 59.21 35.9673 60.9682 39.9979 63.8548C41.1988 64.717 42.3056 65.604 43.329 66.4963C40.1389 72.308 37.9147 78.7316 36.8548 85.5514C34.0981 85.7901 31.1273 85.9032 27.9425 85.8044C23.3949 85.6623 19.286 85.1229 15.6991 84.4208C15.6156 80.8543 13.2557 77.8684 10.0551 77.5287C6.54659 77.1557 3.35651 80.1141 2.94405 84.1376C2.52114 88.1601 5.03768 91.724 8.54624 92.0969C11.6737 92.4287 14.5348 90.1195 15.4224 86.7728C19.1085 86.8483 23.2436 87.1812 27.7232 87.9609C30.8193 88.5003 33.6961 89.1892 36.3432 89.9536C36.2179 91.5026 36.1552 93.069 36.1552 94.6528C36.1552 98.4148 36.505 102.094 37.1838 105.66C34.1399 107.7 29.9317 110.015 24.5853 111.639C19.8968 113.064 15.673 113.549 12.3107 113.654C11.1046 110.482 8.10246 108.504 5.05858 109.098C1.59179 109.776 -0.611493 113.545 0.150782 117.516C0.907836 121.489 4.33288 124.159 7.80489 123.48C10.8018 122.895 12.8432 119.998 12.8536 116.658C16.2995 115.525 20.3615 114.462 24.9874 113.768C30.3076 112.973 35.0745 112.859 39.0842 113.036C40.6975 117.957 42.9531 122.581 45.7359 126.814C44.4254 127.866 42.9531 128.905 41.3136 129.876C38.1549 131.735 35.1267 132.892 32.5005 133.64C30.7149 130.768 27.3943 129.418 24.5279 130.592C21.2543 131.935 19.8081 136.062 21.317 139.809C22.2568 142.16 24.1363 143.811 26.2143 144.375C27.4413 144.714 28.7413 144.672 29.9578 144.173C30.3233 144.025 30.6627 143.841 30.9759 143.621C33.3724 142.019 34.3853 138.697 33.3724 135.528C35.8576 134.231 38.7605 132.946 42.1125 131.886C44.2583 131.206 46.3102 130.711 48.242 130.341C50.0015 132.644 51.9333 134.804 54.0113 136.799C54.2097 136.988 54.4028 137.178 54.6012 137.356C53.1968 140.527 51.0822 144.381 47.8922 148.289C44.77 152.113 41.5225 154.899 38.7919 156.864C36.0508 154.899 32.464 154.94 30.2554 157.143C27.7441 159.655 27.9843 164.026 30.7984 166.906C33.6021 169.78 37.9252 170.077 40.4365 167.565C42.6137 165.386 42.7233 161.799 40.8646 159.013C43.0157 156.181 45.8194 152.986 49.401 149.833C53.2437 146.448 57.0395 143.942 60.3444 142.095C64.7197 145.242 69.5543 147.79 74.718 149.614C74.5091 151.579 74.1593 153.699 73.5903 155.926C72.3529 160.777 70.4889 164.667 68.7973 167.53C65.4871 166.859 62.2135 168.39 61.091 171.324C59.8171 174.656 61.8063 178.539 65.5341 180C69.262 181.462 73.3187 179.941 74.5927 176.604C75.7047 173.706 74.3421 170.392 71.5175 168.623C72.3163 165.172 73.5746 161.092 75.5795 156.71C76.561 154.572 77.6052 152.624 78.6755 150.848C82.6488 151.935 86.7943 152.6 91.0651 152.784C91.7647 156.169 92.3286 159.958 92.6001 164.097C93.0074 170.255 92.6784 175.707 92.0989 180.209C88.8514 180.846 86.4288 183.435 86.4288 186.527C86.4288 190.1 89.6711 193 93.6704 193C97.6698 193 100.907 190.1 100.907 186.527C100.907 183.446 98.4947 180.862 95.2681 180.214C94.7251 175.611 94.4275 170.172 94.7355 164.097C94.9496 159.999 95.409 156.217 95.9938 152.796C100.458 152.624 104.791 151.929 108.932 150.772C109.287 151.389 109.642 152.03 109.976 152.689C112.221 157.042 113.432 161.122 114.09 164.388C111.208 166.08 109.746 169.37 110.775 172.304C111.965 175.671 115.975 177.299 119.75 175.944C123.514 174.584 125.602 170.754 124.417 167.386C123.368 164.4 120.084 162.785 116.727 163.403C115.186 160.724 113.396 156.68 112.774 151.501C112.696 150.86 112.639 150.231 112.602 149.614C117.217 147.998 121.556 145.795 125.545 143.099C128.124 145.219 130.839 147.749 133.538 150.754C137.684 155.374 140.697 159.928 142.874 163.8C140.665 166.307 140.279 169.875 142.153 172.34C144.309 175.172 148.617 175.469 151.791 173.005C154.96 170.54 155.791 166.247 153.634 163.408C151.77 160.962 148.293 160.403 145.338 161.894C142.158 158.634 138.634 154.507 135.235 149.435C133.037 146.157 131.225 142.974 129.727 139.987C131.335 138.675 132.875 137.279 134.332 135.801C136.728 133.377 138.916 130.746 140.848 127.932C144.419 128.941 148.549 130.42 152.924 132.641C157.143 134.773 160.657 137.118 163.492 139.304C162.416 142.475 163.439 145.908 166.097 147.44C169.167 149.216 173.255 147.802 175.244 144.293C177.228 140.777 176.346 136.495 173.276 134.72C170.592 133.17 167.126 134.055 164.969 136.655C161.805 135.438 157.968 133.591 153.989 130.759C149.854 127.819 146.737 124.666 144.471 121.946C146.001 119.048 147.291 116.002 148.319 112.83C150.037 112.89 151.843 113.044 153.728 113.329C158.558 114.066 162.583 115.45 165.679 116.827C165.413 120.212 167.303 123.312 170.305 124.089C173.72 124.98 177.307 122.528 178.304 118.608C179.296 114.689 177.328 110.794 173.913 109.903C170.895 109.119 167.757 110.925 166.374 114.042C163.079 113.769 158.871 113.039 154.266 111.233C152.512 110.544 150.899 109.778 149.426 108.977C150.162 106.037 150.679 103.014 150.945 99.9147C153.921 99.6711 157.091 99.5169 160.416 99.5105C166.301 99.4926 171.637 99.9199 176.325 100.55C176.889 103.81 179.369 106.292 182.397 106.387C185.927 106.488 188.887 103.293 188.997 99.249C189.111 95.2049 186.344 91.8439 182.81 91.743Z" fill="#FA5752" fill-opacity="0.9"/>
</svg>
